<?xml version="1.0" encoding="UTF-8" standalone="no"?>
<!-- Created with Inkscape (http://www.inkscape.org/) -->

<svg
   width="512"
   height="512"
   viewBox="0 0 512 512"
   version="1.1"
   id="svg5"
   xml:space="preserve"
   inkscape:version="1.2.2 (1:1.2.2+202212051552+b0a8486541)"
   sodipodi:docname="desenho.svg"
   xmlns:inkscape="http://www.inkscape.org/namespaces/inkscape"
   xmlns:sodipodi="http://sodipodi.sourceforge.net/DTD/sodipodi-0.dtd"
   xmlns:xlink="http://www.w3.org/1999/xlink"
   xmlns="http://www.w3.org/2000/svg"
   xmlns:svg="http://www.w3.org/2000/svg"><sodipodi:namedview
     id="namedview7"
     pagecolor="#ffffff"
     bordercolor="#000000"
     borderopacity="0.25"
     inkscape:showpageshadow="2"
     inkscape:pageopacity="0.0"
     inkscape:pagecheckerboard="0"
     inkscape:deskcolor="#d1d1d1"
     inkscape:document-units="px"
     showgrid="false"
     inkscape:zoom="3.1212135"
     inkscape:cx="48.859201"
     inkscape:cy="245.09698"
     inkscape:window-width="1920"
     inkscape:window-height="1011"
     inkscape:window-x="1366"
     inkscape:window-y="32"
     inkscape:window-maximized="1"
     inkscape:current-layer="layer1" /><defs
     id="defs2"><clipPath
       clipPathUnits="userSpaceOnUse"
       id="clipPath2541"><use
         x="0"
         y="0"
         xlink:href="#g2537"
         id="use2543" /></clipPath></defs><g
     inkscape:label="Camada 1"
     inkscape:groupmode="layer"
     id="layer1"><path
       style="fill:#0d91ce;stroke:none"
       d="m 293.07565,228.25714 c 6.5802,-3.9911 14.7594,-9.9602 16,-18 13.9187,0.0108 16.761,14.5915 28,21 -2.1772,-8.3939 -7.8957,-14.1713 -10.3472,-22 -1.4026,-4.479 0.7343,-10.87737 -3.1667,-14.39661 -3.9516,-3.56487 -17.7307,-2.87327 -19.8827,2.45525 -1.6593,4.10866 0.3281,8.83736 -1.6165,12.94136 -3.0732,6.4859 -8.21,10.4152 -8.9869,18 m 27,-26 -11,1 c 1.0376,-6.21761 8.7034,-6.71307 11,-1 m -28,66 h 8 c 0,-7.1072 -3.5567,-28.2365 1.6034,-33.3966 2.7359,-2.7359 8.8709,-1.6034 12.3966,-1.6034 -4.1633,-8.6462 -16.762,-9.893 -20.9907,0.0401 -3.96161,9.3056 -1.0093,24.9175 -1.0093,34.9599 m 22,-42 c 2.8377,7.2584 27.5383,18.2135 8.9969,26.2971 -2.176,0.9487 -4.6834,1.2524 -6.9969,1.7029 0.2838,8.6422 6.6157,5.5683 11.8912,10.2785 5.4865,4.8988 3.7421,10.5481 2.1088,16.7215 16.9818,-0.0131 12.116,-20.1039 -1,-24 16.848,-15.0731 4.7014,-30.9869 -15,-31 m -32,56 c 21.0558,-9.7702 41.8386,10.505 65,2 -5.8424,-1.797 -12.7742,0.8341 -19,-0.7608 -11.956,-3.0628 -41.0759,-25.6415 -46,-1.2392 m 3,5 41,5 c -8.2234,-4.4042 -34.95185,-15.4601 -41,-5 z"
       id="path863" /><path
       style="fill:#000000"
       id="path861"
       d="" /><path
       style="fill:#000000"
       id="path859"
       d="" /><path
       style="fill:#0d91ce;fill-opacity:1;stroke:none;stroke-width:0.255083"
       d="m 171.99803,226.2367 c -1.76691,0.79045 -3.32609,1.43276 -4.2939,3.31609 -2.5622,4.98591 2.30246,10.03582 7.3549,8.8429 3.67608,-0.86797 5.45484,-5.59103 3.78372,-8.8429 -0.96579,-1.87939 -2.7845,-2.94406 -4.80406,-3.31609 0.27154,0.73703 0.61731,1.66125 1.10536,2.29575 1.05108,1.36641 2.44936,2.08197 2.33828,4.08133 -0.2469,4.44414 -6.05155,5.3077 -7.99262,1.53051 -0.87602,-1.70467 -0.35507,-3.5339 0.97782,-4.84659 0.68571,-0.67533 2.15502,-2.14505 1.5305,-3.061 m 1.02033,0 c -1.02127,2.04255 -3.32657,4.91845 -2.46581,7.39741 0.93034,2.67938 5.22763,1.92734 5.52682,-0.76525 0.26187,-2.35691 -1.78888,-4.564 -2.55084,-6.63216 z"
       id="path1035" /><g
       id="g2539"
       clip-path="url(#clipPath2541)"
       transform="translate(-35.883479,-3.8446585)"><g
         inkscape:label="Clip"
         id="g2537"><path
           style="fill:#0d91ce;stroke:none"
           d="m 151.13063,230.57924 c 1.85755,-2.4576 3.25101,-2.746 4.5821,-3.41753 1.81993,-0.73345 12.53728,-0.7455 16.4455,-0.81303 7.17167,-0.12392 14.12499,-0.0888 21.51957,0.14084 -1.2649,-4.3698 -3.60017,-8.98193 -6.28277,-12.84493 -2.1435,-3.0866 -3.02638,-3.09208 -4.17078,-6.83738 -1.3673,-4.4749 1.7317,-12.55901 -3.3333,-15.5 -3.7736,-2.19115 -17.49245,-1.31868 -19.62015,2.70024 -1.26527,2.38999 -0.31946,9.0963 -1.05781,13.76114 -0.52842,3.33857 -2.7009,4.85007 -3.56697,6.58222 -3.2744,6.5488 -8.18471,19.09581 -8.08423,27.28103 m 18.20901,-40.62443 c 0.1765,-6.70545 11.97392,-6.51784 12.28156,-0.19903"
           id="path2783"
           sodipodi:nodetypes="ccscssscssccc" /><path
           style="fill:#0d91ce;fill-opacity:1;stroke:none;stroke-width:0.0867096"
           d="m 149.79603,241.70728 h 16.46615 v 9.62487 l 0.0836,2.69854 v 1.34929 c 0.48797,-0.15201 1.00971,-0.17416 1.50452,-0.29981 0.67411,-0.17136 1.36301,-0.44095 2.00605,-0.71961 0.73896,-0.32033 1.4511,-0.75749 2.17319,-1.12441 1.5647,-0.79516 3.54823,-1.3983 5.26583,-1.54421 v -7.37605 -1.79905 c 0,-0.21506 -0.0578,-0.53746 0.0976,-0.70457 0.14225,-0.15321 0.38832,-0.10498 0.57112,-0.10498 h 1.25378 c 1.69468,0 3.41943,0.0857 5.09865,-0.0898 1.12037,-0.11715 2.25896,-0.57085 3.25979,-1.09445 3.85074,-2.01447 6.18527,-6.11755 6.18527,-10.68927 h -24.07235 -7.18828 c -1.45137,0 -3.02734,-0.14043 -4.42996,0.29985 -1.34631,0.42258 -2.71576,1.05069 -3.8449,1.97894 -2.77427,2.28067 -4.42999,5.85224 -4.42999,9.59487 m 7.10471,7.28611 -0.50152,-1.889 c -0.37805,0 -0.55199,-0.70423 -1.0866,-0.50975 -0.46574,0.16946 -0.28026,0.62813 -0.0836,0.95951 0.34988,0.58937 1.03727,1.2596 1.6717,1.43924 m 4.42995,4.94736 c -0.13448,-0.78547 -0.4083,-1.51975 -0.33433,-2.33877 0.0611,-0.67643 0.31269,-1.38335 0.25075,-2.06888 -0.10639,-1.1782 -1.00552,-2.42871 -2.17319,-2.42871 -0.36384,0 -0.80626,0.0464 -1.05877,0.37484 -0.38683,0.503 -0.13188,1.3355 0.0279,1.87396 0.39385,1.32698 1.30116,2.61597 2.20103,3.59809 0.32071,0.34998 0.64519,0.83618 1.0866,0.98947 m -1.33736,0.0898 c -0.2388,-0.36212 -0.68949,-0.50966 -1.003,-0.80956 -0.5958,-0.56995 -1.17529,-1.42285 -1.92245,-1.76909 -0.3687,-0.17082 -1.13182,-0.44273 -1.37914,0.06 -0.30216,0.61427 0.28602,1.18142 0.71046,1.45423 1.05392,0.67735 2.36134,1.0644 3.59413,1.0644 m -1.17017,1.7091 -0.16717,0.80956 c 0.85071,0.45776 2.06921,0.60727 3.00905,0.71962 2.22643,0.26624 4.41132,0.35539 6.60317,-0.29982 1.76403,-0.52738 3.35559,-1.56354 5.09864,-2.18888 3.74025,-1.34172 7.67624,-1.60439 11.53468,-0.83951 v -0.89952 c -2.11704,-0.41973 -4.43241,-0.67689 -6.60318,-0.44978 -1.56362,0.16364 -3.08251,0.56671 -4.59716,1.01944 -1.33308,0.39857 -2.53427,1.13051 -3.76129,1.75406 -0.93432,0.47485 -2.0006,0.76351 -3.00905,0.97452 -1.79306,0.37521 -3.55,0.21823 -5.3494,0.0298 -0.93097,-0.0975 -1.83493,-0.55121 -2.75829,-0.62966 m 22.31707,-1.16936 -2.42396,0.0898 -3.84488,0.65958 -6.77035,2.81858 -3.42697,0.50967 -0.83584,0.06 -1.83886,-0.1799 v 0.89951 c 2.16082,0.42835 4.49935,0.14914 6.60317,-0.47972 1.20035,-0.3589 2.28102,-1.06252 3.42697,-1.55922 1.51122,-0.65502 3.09413,-1.07716 4.68073,-1.40918 0.89736,-0.18781 1.76924,-0.23513 2.6747,-0.32985 0.60966,-0.0637 1.23498,-0.18819 1.83887,0 l -0.0836,-1.07944 m -14.87805,6.20668 v 0.89953 c 1.66033,0 3.30435,-0.86219 4.76432,-1.60411 1.15715,-0.5881 2.44092,-1.02807 3.67773,-1.37932 0.60915,-0.17297 1.2194,-0.32013 1.83886,-0.44977 0.17978,-0.0376 0.59177,-0.0282 0.71045,-0.19482 0.13634,-0.19161 0.0417,-0.72575 0.0417,-0.95952 -0.5795,0.0164 -1.18824,0.20266 -1.75528,0.32984 -1.29046,0.2893 -2.64787,0.69596 -3.84488,1.30431 -1.72501,0.87668 -3.47754,1.88773 -5.433,2.05386 m 0,3.14834 c 1.81278,0 3.48254,-1.04445 5.09865,-1.76909 1.92312,-0.86228 3.89279,-1.42422 5.93451,-1.82899 v -0.98947 c -3.01974,0.0856 -5.72596,1.89169 -8.44204,3.0284 -0.60599,0.25359 -1.28612,0.40649 -1.92244,0.53971 -0.1793,0.0376 -0.50059,-0.0276 -0.62689,0.14987 -0.12679,0.1782 -0.0418,0.65332 -0.0418,0.86957 m 10.94958,-2.42872 -1.33736,0.29981 -2.00602,0.53972 -4.76431,2.15884 -2.00603,0.5997 -0.79406,0.19495 -0.0418,0.8845 c 1.78663,-0.0505 3.52534,-0.98455 5.09865,-1.78403 1.24392,-0.63217 2.66928,-1.07314 4.01207,-1.39425 0.63314,-0.15149 1.27391,-0.36466 1.92245,-0.4198 l -0.0836,-1.07944 m -10.94958,6.9263 c 1.68214,0 3.35508,-0.96508 4.84791,-1.67913 1.88481,-0.9015 4.11602,-1.74317 6.18526,-1.91895 v -0.98946 c -0.64763,0 -1.29055,0.18818 -1.92246,0.32986 -1.39978,0.31383 -2.80652,0.82908 -4.09565,1.48419 -0.74849,0.38033 -1.46055,0.80875 -2.25677,1.09436 -0.62714,0.22498 -1.26205,0.50104 -1.92244,0.59971 -0.19065,0.0286 -0.67495,0.0166 -0.79406,0.19494 -0.12597,0.18817 -0.0417,0.6597 -0.0417,0.88448 m 0.0836,2.2488 c 1.04496,-0.20716 2.10164,-0.42503 3.09261,-0.85453 1.9452,-0.84321 3.77569,-1.82746 5.85092,-2.32374 0.65899,-0.1576 1.32675,-0.40055 2.00604,-0.41981 v -0.98947 l -1.92246,0.32986 -3.7613,1.30431 -2.7583,1.33424 -1.83886,0.52469 -0.71045,0.20996 0.0418,0.88449 m 10.86598,-2.4287 c -0.44267,0.20059 -1.02106,0.18423 -1.50452,0.29981 -0.97635,0.23352 -1.98907,0.50769 -2.92546,0.89952 -2.0998,0.87883 -4.18674,2.42267 -6.51959,2.48871 l 0.0836,0.98945 2.34035,-0.56965 4.76432,-2.09895 2.50753,-0.7196 1.42094,-0.29981 -0.16717,-0.98948 m -10.94957,5.93683 v 0.89952 c 1.62071,0 3.16744,-0.78763 4.59716,-1.51417 0.67176,-0.34146 1.39703,-0.59476 2.08961,-0.88459 1.06344,-0.44497 2.23112,-0.74003 3.34337,-0.98947 0.35733,-0.0799 0.75886,-0.0614 1.0866,-0.20985 l -0.0836,-0.98947 c -1.79732,0.35629 -3.6748,0.69317 -5.34942,1.5442 -1.74683,0.88774 -3.68013,2.08706 -5.68375,2.14383 m 0,2.2488 v 0.89951 c 1.67011,0 3.29868,-0.85932 4.76433,-1.60412 1.15171,-0.58531 2.44175,-1.04678 3.67772,-1.37932 0.58418,-0.15712 1.1629,-0.31078 1.75527,-0.43474 0.17627,-0.0369 0.6019,-0.0326 0.71047,-0.19492 0.1222,-0.18268 0.11978,-0.74588 0.12538,-0.97443 -0.58517,0.0166 -1.18265,0.20141 -1.75528,0.32984 -1.42997,0.32058 -2.85859,0.81308 -4.17923,1.4842 -1.61,0.8182 -3.27668,1.71917 -5.09866,1.87398 m 10.53166,-1.43924 -0.91943,0.20986 -2.75829,0.80957 -4.09564,1.91904 -1.92244,0.56965 -0.79405,0.19493 -0.0418,0.8845 c 1.54697,0 3.15648,-0.82449 4.51356,-1.51416 1.26881,-0.64485 2.6533,-1.14336 4.01206,-1.52919 0.44158,-0.12536 0.89043,-0.24466 1.33734,-0.34486 0.12137,-0.0272 0.29883,0.003 0.40397,-0.0749 0.13216,-0.0965 0.16199,-0.34308 0.20896,-0.49473 0.073,-0.23514 0.17788,-0.43699 0.0558,-0.62966 m -10.44805,6.83635 2.59111,-0.65961 4.09565,-1.8291 1.33734,-0.44976 0.91943,-0.25483 0.66867,-1.21435 c -1.52382,0.30207 -3.11184,0.83178 -4.51356,1.5442 -0.95687,0.48629 -1.89427,1.05595 -2.92546,1.36421 -0.53268,0.15932 -1.05534,0.29146 -1.5881,0.43483 -0.16675,0.0448 -0.52099,0.0215 -0.62688,0.1799 -0.13985,0.20906 -0.0369,0.68328 0.0417,0.88451 m -0.0836,1.79903 c 1.03302,0 2.01247,-0.0919 3.00904,-0.38976 0.76395,-0.22838 1.44526,-0.70397 2.17319,-1.01953 0.862,-0.37365 2.11429,-1.12249 2.59112,-2.00888 -1.06854,0.0907 -2.22685,0.85185 -3.1762,1.33426 -0.90296,0.45894 -1.82181,0.80541 -2.75829,1.16937 -0.39862,0.15498 -0.83619,0.21247 -1.25377,0.29991 -0.14811,0.0307 -0.44902,0.0389 -0.5433,0.17989 -0.0734,0.10946 -0.0417,0.3089 -0.0417,0.43474 z"
           id="path1049" /></g></g><path
       style="fill:#0d91ce;fill-opacity:1;stroke:none;stroke-width:0.15034"
       d="m 158.14126,240.36482 c -0.24573,-1.16733 1.22494,-2.08673 0.85194,-3.30749 -0.7054,-2.30854 -4.23328,-1.11181 -5.0364,0.45103 -1.09971,2.13996 0.5895,4.56776 0.37586,6.76531 -0.19421,1.99731 -1.75397,3.72314 -1.75397,5.71292 0,1.58037 1.52739,2.49263 3.0068,2.20505 1.52688,-0.29694 2.68243,-1.43786 2.95668,-2.95675 0.13796,-0.76409 -0.29343,-1.54297 -0.50113,-2.25511 -0.2066,-0.70834 0.0791,-1.30315 0.25056,-1.95442 1.9576,0.61818 1.79306,2.85029 1.95441,4.51021 0.0949,0.97615 0.71362,1.95442 1.80409,1.95442 1.55702,0 3.14546,-1.19264 3.00681,-2.85645 -0.20682,-2.48171 -3.37165,-3.58103 -3.60816,-6.01362 -0.23701,-2.43787 3.18989,-2.01794 4.30977,-3.60814 1.19703,-1.69985 0.19608,-4.18923 -2.05469,-3.40772 -1.25599,0.43612 -2.57531,1.67846 -3.45782,2.656 -0.70611,0.7822 -1.1533,1.60401 -2.10475,2.10476 m 22.70136,-0.40091 c -1.04186,0.1447 -1.5628,1.13701 -1.75401,2.05465 -0.25769,1.23712 0.36893,2.39195 0.2506,3.60817 -0.17485,1.7988 -1.37756,3.06427 -0.87694,4.96122 0.16419,0.62254 0.52544,1.22679 1.17762,1.45332 1.42973,0.49645 3.45572,-0.48647 3.60817,-2.05468 0.0555,-0.57068 -0.62105,-2.40736 0.30068,-2.60589 0.57009,-0.12281 0.80838,1.12044 0.80176,1.50339 -0.0171,0.99906 -0.80765,3.17313 0.85198,3.35758 0.23213,0.026 0.51912,0.0226 0.7517,0 1.58005,-0.15364 2.40543,-1.16722 2.40543,-2.7061 0,-0.74467 -0.71532,-2.29515 0.60137,-2.48061 0.68796,-0.0969 1.17671,1.05283 1.0775,1.60363 -0.15592,0.86435 -0.70468,2.37708 0.15032,3.082 0.42155,0.34759 1.41304,0.25064 1.92932,0.20041 1.63689,-0.1592 2.71753,-2.07423 2.35537,-3.60814 -0.1932,-0.81789 -0.70841,-1.56483 -0.8019,-2.40545 -0.051,-0.45923 0.20655,-0.8996 0.2506,-1.35307 0.11365,-1.16953 -0.0726,-2.27674 -0.90205,-3.15712 -1.06589,-1.13149 -2.62417,-1.49995 -4.05916,-0.90204 -0.37361,0.15568 -0.80236,0.61253 -1.20273,0.65144 -0.51145,0.0498 -1.05537,-0.62652 -1.65374,-0.65144 -0.56093,-0.0234 -1.12018,0.0226 -1.65375,0.20044 -0.35133,0.11713 -0.82806,0.4815 -1.2027,0.47609 -0.37586,-0.005 -0.51868,-0.45427 -0.75171,-0.67653 -0.36487,-0.3481 -1.14784,-0.62151 -1.65373,-0.55127 m -7.21633,10.47369 c 0.0531,0.67202 0.31376,1.50357 0.90203,1.90436 0.67009,0.45644 1.98179,0.33932 2.38036,-0.40096 0.62691,-1.16424 -0.12524,-2.70459 -0.12524,-3.90881 0,-0.45961 0.14476,-1.05526 0.25062,-1.50342 0.36199,-1.53346 1.35124,-5.52285 -1.30302,-5.41225 -0.30879,0.0134 -0.61667,0.0736 -0.90203,0.20046 -0.85394,0.37954 -0.95332,1.09181 -1.07748,1.90431 -0.18162,1.18867 -0.15788,2.52092 -0.7015,3.60816 -0.31346,0.62678 -0.95194,1.50299 -1.77913,1.40317 -0.60046,-0.0724 -1.06394,-0.84965 -1.10243,-1.40317 -0.0396,-0.56847 0.32096,-1.13468 0.50109,-1.65374 0.31376,-0.90342 0.64495,-2.04443 0.35088,-3.00679 -0.39179,-1.28199 -1.82166,-1.56694 -2.78128,-0.7016 -0.81033,0.73058 -1.09476,1.91164 -0.87707,2.95668 0.11443,0.54907 0.36276,1.08335 0.2757,1.65374 -0.24144,1.57959 -1.22637,2.83873 -0.57637,4.51021 0.72566,1.86572 3.79259,1.72978 5.21182,0.90204 0.49281,-0.28746 0.8897,-0.72314 1.35305,-1.05239 z"
       id="path95604" /><path
       style="fill:#0d91ce;fill-opacity:1;stroke:none;stroke-width:0.15034"
       d="m 158.3822,264.41056 c -1.08668,-0.0286 -1.69872,-1.10211 -2.85646,-0.877 -2.19801,0.42739 -3.04923,3.69106 -1.50339,5.23684 0.89212,0.89213 2.17302,0.86207 3.30747,0.75171 2.04873,-0.1992 4.14209,-1.51859 4.35986,-3.7585 0.15686,-1.61333 -0.58396,-3.17486 -1.65375,-4.35985 -0.5678,-0.62896 -1.20901,-1.20065 -1.80407,-1.80408 -0.23598,-0.23931 -0.63303,-0.5494 -0.70158,-0.90205 -0.0746,-0.38315 0.3781,-0.75329 0.55124,-1.05237 0.37915,0.36919 0.7979,0.83263 1.35305,0.90204 2.0861,0.26075 3.36408,-2.0223 1.95444,-3.60818 -2.69303,-3.02965 -9.32174,0.25757 -8.06827,4.35987 0.50076,1.63887 2.44322,2.40122 3.7084,3.33254 0.6615,0.48694 1.32991,0.8994 1.35306,1.77903 m 19.8449,-3.30748 c -0.82419,-0.47711 -1.48853,-1.17806 -2.55579,-0.85193 -2.28427,0.69796 -2.91119,4.43278 -2.58089,6.41449 0.11094,0.66556 0.2058,1.39757 0.67652,1.92932 0.85605,0.96699 2.62419,1.33607 3.85878,1.02743 0.37646,-0.0942 0.68767,-0.43028 1.05238,-0.50124 0.28099,-0.0545 0.51055,0.1502 0.75171,0.25062 0.75937,0.31647 1.9215,0.58528 2.53067,-0.15035 0.82235,-0.99298 -0.2852,-2.62553 -0.6263,-3.60816 -0.63866,-1.83912 -0.40339,-3.60079 0.20039,-5.41223 0.45747,-1.37242 1.29398,-3.3756 0.57625,-4.81089 -0.93753,-1.87519 -2.92201,-0.91529 -3.53298,0.60137 -0.66707,1.65644 0.25738,3.461 -0.35074,5.11157 m -12.02724,2.10474 c 1.91235,1.76141 6.64174,0.72952 5.98851,-2.40543 -0.0805,-0.38631 -0.23542,-0.73595 -0.47598,-1.05239 -1.6874,-2.2186 -5.78501,-1.53649 -7.46693,0.30067 -1.79357,1.95914 -1.79074,5.57569 -0.5763,7.81771 1.18649,2.19045 5.11085,2.33041 7.04093,1.1776 1.05734,-0.63141 2.49925,-2.26834 1.60368,-3.58304 -1.21161,-1.77874 -2.77228,0.14824 -4.00913,0.52618 -0.64224,0.19625 -1.40618,-0.37047 -1.77902,-0.82686 -0.17419,-0.21321 -0.348,-0.48436 -0.42598,-0.7517 -0.11498,-0.39416 0.0691,-0.80736 0.10016,-1.20274 m 20.2959,0 c 1.22438,0.99878 3.21097,1.04518 4.66054,0.40092 1.47635,-0.65613 1.90963,-2.40174 1.00232,-3.70839 -1.66516,-2.39779 -5.85228,-1.72328 -7.61726,0.15032 -1.71733,1.823 -1.74802,5.35417 -0.7266,7.51701 1.07463,2.2757 4.95942,2.78897 7.04087,1.60368 1.11373,-0.63428 2.69546,-2.32635 1.75403,-3.70842 -1.2116,-1.77874 -2.77228,0.14824 -4.00912,0.52618 -0.64225,0.19626 -1.40613,-0.37047 -1.779,-0.82686 -0.17423,-0.21323 -0.34803,-0.48436 -0.42604,-0.7517 -0.11487,-0.39416 0.0691,-0.80736 0.10028,-1.20274 m -17.89047,-2.83139 c 0.95871,-0.16205 1.44552,1.0679 0.45104,1.42825 -1.1202,0.40582 -1.65931,-1.22402 -0.45104,-1.42825 m 20.29591,0 c 1.0091,-0.19897 1.4505,1.06608 0.45104,1.42825 -1.12292,0.40681 -1.6088,-1.19999 -0.45104,-1.42825 m -12.17753,2.85646 c 1.09131,-0.16675 1.49467,1.59659 0.30068,1.77902 -1.24409,0.19005 -1.54699,-1.5886 -0.30068,-1.77902 z"
       id="path95606" /><path
       style="fill:#028fff;stroke:none;stroke-width:0.122883"
       d="m 109.38142,276.24902 c 0.46118,1.59772 1.67821,3.1211 2.67454,4.42378 3.91431,5.11759 9.66879,8.10413 16.00364,8.88259 16.06509,1.97399 30.61073,-7.94056 46.20394,-9.83063 4.47048,-0.54178 9.16571,-0.44716 13.51711,0.82946 1.4134,0.41473 2.8338,0.90356 4.17802,1.5079 0.88586,0.39814 1.86401,1.06539 2.8263,1.19123 -0.89139,-1.88429 -2.74877,-3.59936 -4.3009,-4.94997 -4.73222,-4.11743 -10.95721,-6.85932 -17.32648,-6.25326 -6.76002,0.64329 -13.0601,2.17134 -19.53836,4.24118 -7.12008,2.27493 -14.24101,5.11487 -21.75026,5.83521 -5.58895,0.53626 -11.15186,-0.002 -16.34341,-2.29693 -2.16889,-0.95885 -4.01138,-2.67896 -6.14414,-3.58056 m 11.4281,13.39423 v 0.12289 c 3.20909,1.98037 6.3743,3.68205 10.07639,4.56091 7.07817,1.6803 14.35345,0.48281 21.25872,-1.43675 9.97871,-2.7737 19.58065,-7.02865 29.98341,-8.01859 6.34297,-0.6036 12.029,1.0128 17.81801,3.41983 -1.12794,-1.38452 -3.3273,-2.23868 -4.91531,-2.98581 -5.98403,-2.81536 -12.47789,-3.07096 -18.92396,-2.17526 -13.25708,1.84213 -25.32836,9.23451 -38.83096,9.82583 -3.76145,0.16466 -7.56995,-0.22451 -11.18234,-1.31252 -1.79274,-0.53994 -3.48545,-1.55114 -5.28396,-2.00053 m 61.93293,-6.51278 -0.12288,0.12288 0.12288,-0.12288 m 5.16108,0 -0.12288,0.12288 z"
       id="path1743"
       sodipodi:nodetypes="ccccscccsscccccscscsscsccccccc" /></g></svg>
