<?xml version="1.0" encoding="UTF-8" standalone="no"?>
<!-- Created with Inkscape (http://www.inkscape.org/) -->

<svg
   width="512"
   height="512"
   viewBox="0 0 512 512"
   version="1.1"
   id="svg5"
   xml:space="preserve"
   inkscape:version="1.2.2 (732a01da63, 2022-12-09)"
   sodipodi:docname="desenho.svg"
   xmlns:inkscape="http://www.inkscape.org/namespaces/inkscape"
   xmlns:sodipodi="http://sodipodi.sourceforge.net/DTD/sodipodi-0.dtd"
   xmlns:xlink="http://www.w3.org/1999/xlink"
   xmlns="http://www.w3.org/2000/svg"
   xmlns:svg="http://www.w3.org/2000/svg"><sodipodi:namedview
     id="namedview7"
     pagecolor="#ffffff"
     bordercolor="#000000"
     borderopacity="0.25"
     inkscape:showpageshadow="2"
     inkscape:pageopacity="0.0"
     inkscape:pagecheckerboard="0"
     inkscape:deskcolor="#d1d1d1"
     inkscape:document-units="px"
     showgrid="false"
     inkscape:zoom="0.78030338"
     inkscape:cx="93.553357"
     inkscape:cy="174.29118"
     inkscape:window-width="1366"
     inkscape:window-height="745"
     inkscape:window-x="-8"
     inkscape:window-y="-8"
     inkscape:window-maximized="1"
     inkscape:current-layer="layer1" /><defs
     id="defs2"><clipPath
       clipPathUnits="userSpaceOnUse"
       id="clipPath2541"><use
         x="0"
         y="0"
         xlink:href="#g2537"
         id="use2543" /></clipPath></defs><g
     inkscape:label="Camada 1"
     inkscape:groupmode="layer"
     id="layer1"><path
       style="fill:#0d91ce;stroke:none"
       d="m 293.07565,228.25714 c 6.5802,-3.9911 14.7594,-9.9602 16,-18 13.9187,0.0108 16.761,14.5915 28,21 -2.1772,-8.3939 -7.8957,-14.1713 -10.3472,-22 -1.4026,-4.479 0.7343,-10.87737 -3.1667,-14.39661 -3.9516,-3.56487 -17.7307,-2.87327 -19.8827,2.45525 -1.6593,4.10866 0.3281,8.83736 -1.6165,12.94136 -3.0732,6.4859 -8.21,10.4152 -8.9869,18 m 27,-26 -11,1 c 1.0376,-6.21761 8.7034,-6.71307 11,-1 m -28,66 h 8 c 0,-7.1072 -3.5567,-28.2365 1.6034,-33.3966 2.7359,-2.7359 8.8709,-1.6034 12.3966,-1.6034 -4.1633,-8.6462 -16.762,-9.893 -20.9907,0.0401 -3.96161,9.3056 -1.0093,24.9175 -1.0093,34.9599 m 22,-42 c 2.8377,7.2584 27.5383,18.2135 8.9969,26.2971 -2.176,0.9487 -4.6834,1.2524 -6.9969,1.7029 0.2838,8.6422 6.6157,5.5683 11.8912,10.2785 5.4865,4.8988 3.7421,10.5481 2.1088,16.7215 16.9818,-0.0131 12.116,-20.1039 -1,-24 16.848,-15.0731 4.7014,-30.9869 -15,-31 m -32,56 c 21.0558,-9.7702 41.8386,10.505 65,2 -5.8424,-1.797 -12.7742,0.8341 -19,-0.7608 -11.956,-3.0628 -41.0759,-25.6415 -46,-1.2392 m 3,5 41,5 c -8.2234,-4.4042 -34.95185,-15.4601 -41,-5 z"
       id="path863" /><path
       style="fill:#000000"
       id="path861"
       d="" /><path
       style="fill:#000000"
       id="path859"
       d="" /><path
       style="fill:#0d91ce;fill-opacity:1;stroke:none;stroke-width:0.315394"
       d="m 200.80529,226.93794 c -2.18467,0.97734 -4.11249,1.77152 -5.30913,4.10013 -3.16799,6.16475 2.84685,12.40864 9.09386,10.93367 4.54524,-1.07319 6.74455,-6.91294 4.67833,-10.93367 -1.19414,-2.32374 -3.44286,-3.64014 -5.93991,-4.10013 0.33574,0.91129 0.76326,2.05403 1.3667,2.83855 1.29959,1.68947 3.02848,2.57422 2.89113,5.0463 -0.30527,5.49489 -7.48235,6.56262 -9.88235,1.89237 -1.08314,-2.10771 -0.43902,-4.36944 1.20901,-5.99249 0.84783,-0.835 2.66454,-2.65222 1.89236,-3.78473 m 1.26158,0 c -1.26274,2.52548 -4.11309,6.08134 -3.04882,9.14642 1.1503,3.31287 6.46362,2.38303 6.83355,-0.94618 0.32379,-2.91417 -2.21183,-5.64309 -3.15394,-8.20024 z"
       id="path1035" /><g
       id="g2539"
       clip-path="url(#clipPath2541)"
       transform="translate(-35.883479,-3.8446585)"><g
         inkscape:label="Clip"
         id="g2537"><path
           style="fill:#0d91ce;stroke:none"
           d="m 149.29756,233.79839 c 0.84696,-1.93074 1.43671,-2.86676 2.20707,-3.67961 0.64454,-0.6801 1.31341,-1.29199 3.34262,-2.15564 4.45453,-1.89588 13.40276,-1.54693 17.31098,-1.61446 7.17167,-0.12392 13.78835,-0.0973 21.18293,0.13238 -1.2649,-4.3698 -3.26353,-8.97347 -5.94613,-12.83647 -2.1435,-3.0866 -3.02638,-3.09208 -4.17078,-6.83738 -1.3673,-4.4749 1.7317,-12.55901 -3.3333,-15.5 -3.7736,-2.19115 -17.49245,-1.31868 -19.62015,2.70024 -1.26527,2.38999 -0.31946,9.0963 -1.05781,13.76114 -0.52842,3.33857 -2.7009,4.85007 -3.56697,6.58222 -3.2744,6.5488 -8.58117,16.30034 -7.9919,24.50523 m 18.11668,-37.84863 c 0.1765,-6.70545 11.97392,-6.51784 12.28156,-0.19903 m -39.28156,79.19903 c 3.03421,-1.1977 5.64496,-3.6272 9,-4 7.2626,-0.807 14.3494,3.4498 21,5.6667 11.6478,3.8826 23.5014,4.5696 35,0.3333 -1.9738,-1.3457 -3.4608,-0.2469 -6,0 -3.6391,0.3538 -8.4425,0.5066 -12,-0.3333 -2.6426,-0.624 -5.5547,-1.6786 -8,-2.8334 -2.3628,-1.1157 -4.7273,-2.3725 -7,-3.6666 -9.01,-5.1307 -30.61112,-12.7592 -32,4.8333 m 3,5 c 0,0 3.18384,-1.27265 6.35552,-1.49919 4.8708,-0.11328 8.86749,3.3535 14.64448,5.16589 6.00354,1.35929 20,1.3333 20,1.3333 -2.6876,-2.0768 -7.4809,-2.3558 -11,-3.3333 -9.58532,-2.56804 -25.26939,-11.52606 -30,-1.6667 z"
           id="path2783"
           sodipodi:nodetypes="cssscssscssccccsscscccccccccc" /><path
           style="fill:#0d91ce;fill-opacity:1;stroke:none;stroke-width:0.0765892"
           d="m 149.79603,239.09268 h 16.46615 v 7.50922 l 0.0836,2.10538 v 1.0527 c 0.48797,-0.1186 1.00971,-0.13587 1.50452,-0.23391 0.67411,-0.13369 1.36301,-0.34402 2.00605,-0.56143 0.73896,-0.24992 1.4511,-0.59099 2.17319,-0.87725 1.5647,-0.62038 3.54823,-1.09094 5.26583,-1.20478 v -5.75472 -1.4036 c 0,-0.16779 -0.0578,-0.41932 0.0976,-0.5497 0.14225,-0.11953 0.38832,-0.0819 0.57112,-0.0819 h 1.25378 c 1.69468,0 3.41943,0.0669 5.09865,-0.0701 1.12037,-0.0914 2.25896,-0.44537 3.25979,-0.85388 3.85074,-1.57167 6.18527,-4.77285 6.18527,-8.33966 h -24.07235 -7.18828 c -1.45137,0 -3.02734,-0.10956 -4.42996,0.23394 -1.34631,0.32969 -2.71576,0.81974 -3.8449,1.54395 -2.77427,1.77936 -4.42999,4.56586 -4.42999,7.48582 m 7.10471,5.68455 -0.50152,-1.47377 c -0.37805,0 -0.55199,-0.54944 -1.0866,-0.39771 -0.46574,0.13221 -0.28026,0.49006 -0.0836,0.7486 0.34988,0.45983 1.03727,0.98273 1.6717,1.12288 m 4.42995,3.85988 c -0.13448,-0.61281 -0.4083,-1.18569 -0.33433,-1.82468 0.0611,-0.52774 0.31269,-1.07927 0.25075,-1.61412 -0.10639,-0.91922 -1.00552,-1.89485 -2.17319,-1.89485 -0.36384,0 -0.80626,0.0362 -1.05877,0.29244 -0.38683,0.39244 -0.13188,1.04194 0.0279,1.46205 0.39385,1.03529 1.30116,2.04095 2.20103,2.80719 0.32071,0.27305 0.64519,0.65238 1.0866,0.77197 m -1.33736,0.0701 c -0.2388,-0.28252 -0.68949,-0.39763 -1.003,-0.63161 -0.5958,-0.44466 -1.17529,-1.11009 -1.92245,-1.38022 -0.3687,-0.13327 -1.13182,-0.34542 -1.37914,0.0468 -0.30216,0.47925 0.28602,0.92173 0.71046,1.13458 1.05392,0.52846 2.36134,0.83043 3.59413,0.83043 m -1.17017,1.33342 -0.16717,0.63162 c 0.85071,0.35714 2.06921,0.47378 3.00905,0.56143 2.22643,0.20773 4.41132,0.27728 6.60317,-0.23391 1.76403,-0.41146 3.35559,-1.21986 5.09864,-1.70774 3.74025,-1.0468 7.67624,-1.25173 11.53468,-0.65498 v -0.7018 c -2.11704,-0.32747 -4.43241,-0.5281 -6.60318,-0.35091 -1.56362,0.12767 -3.08251,0.44214 -4.59716,0.79535 -1.33308,0.31097 -2.53427,0.88202 -3.76129,1.36851 -0.93432,0.37047 -2.0006,0.59568 -3.00905,0.76031 -1.79306,0.29273 -3.55,0.17026 -5.3494,0.0233 -0.93097,-0.076 -1.83493,-0.43006 -2.75829,-0.49126 m 22.31707,-0.91233 -2.42396,0.0701 -3.84488,0.51461 -6.77035,2.19902 -3.42697,0.39764 -0.83584,0.0468 -1.83886,-0.14036 v 0.70179 c 2.16082,0.33419 4.49935,0.11636 6.60317,-0.37427 1.20035,-0.28001 2.28102,-0.82897 3.42697,-1.21649 1.51122,-0.51104 3.09413,-0.84039 4.68073,-1.09943 0.89736,-0.14653 1.76924,-0.18345 2.6747,-0.25735 0.60966,-0.0497 1.23498,-0.14682 1.83887,0 l -0.0836,-0.84216 m -14.87805,4.84239 v 0.7018 c 1.66033,0 3.30435,-0.67267 4.76432,-1.25151 1.15715,-0.45883 2.44092,-0.80209 3.67773,-1.07613 0.60915,-0.13495 1.2194,-0.24977 1.83886,-0.35091 0.17978,-0.0293 0.59177,-0.022 0.71045,-0.152 0.13634,-0.14949 0.0417,-0.56622 0.0417,-0.7486 -0.5795,0.0128 -1.18824,0.15811 -1.75528,0.25734 -1.29046,0.22571 -2.64787,0.54298 -3.84488,1.01761 -1.72501,0.68397 -3.47754,1.47279 -5.433,1.6024 m 0,2.4563 c 1.81278,0 3.48254,-0.81487 5.09865,-1.38023 1.92312,-0.67274 3.89279,-1.11116 5.93451,-1.42696 v -0.77197 c -3.01974,0.0668 -5.72596,1.47588 -8.44204,2.36273 -0.60599,0.19784 -1.28612,0.31714 -1.92244,0.42107 -0.1793,0.0293 -0.50059,-0.0215 -0.62689,0.11693 -0.12679,0.13903 -0.0418,0.50971 -0.0418,0.67843 m 10.94958,-1.89486 -1.33736,0.23391 -2.00602,0.42108 -4.76431,1.68431 -2.00603,0.46788 -0.79406,0.15209 -0.0418,0.69008 c 1.78663,-0.0394 3.52534,-0.76813 5.09865,-1.39188 1.24392,-0.49321 2.66928,-0.83725 4.01207,-1.08778 0.63314,-0.11819 1.27391,-0.28451 1.92245,-0.32753 l -0.0836,-0.84216 m -10.94958,5.40383 c 1.68214,0 3.35508,-0.75295 4.84791,-1.31004 1.88481,-0.70334 4.11602,-1.36001 6.18526,-1.49715 v -0.77197 c -0.64763,0 -1.29055,0.14682 -1.92246,0.25736 -1.39978,0.24485 -2.80652,0.64684 -4.09565,1.15795 -0.74849,0.29673 -1.46055,0.63098 -2.25677,0.85381 -0.62714,0.17552 -1.26205,0.3909 -1.92244,0.46789 -0.19065,0.0223 -0.67495,0.013 -0.79406,0.15208 -0.12597,0.14681 -0.0417,0.5147 -0.0417,0.69007 m 0.0836,1.75449 c 1.04496,-0.16162 2.10164,-0.3316 3.09261,-0.6667 1.9452,-0.65786 3.77569,-1.42576 5.85092,-1.81295 0.65899,-0.12296 1.32675,-0.31251 2.00604,-0.32753 v -0.77198 l -1.92246,0.25735 -3.7613,1.01761 -2.7583,1.04097 -1.83886,0.40935 -0.71045,0.16381 0.0418,0.69007 m 10.86598,-1.89485 c -0.44267,0.1565 -1.02106,0.14374 -1.50452,0.23391 -0.97635,0.18219 -1.98907,0.3961 -2.92546,0.7018 -2.0998,0.68565 -4.18674,1.89014 -6.51959,1.94166 l 0.0836,0.77196 2.34035,-0.44443 4.76432,-1.63758 2.50753,-0.56143 1.42094,-0.23391 -0.16717,-0.77198 m -10.94957,4.63186 v 0.7018 c 1.62071,0 3.16744,-0.6145 4.59716,-1.18134 0.67176,-0.26641 1.39703,-0.46403 2.08961,-0.69015 1.06344,-0.34717 2.23112,-0.57737 3.34337,-0.77198 0.35733,-0.0624 0.75886,-0.0479 1.0866,-0.16372 l -0.0836,-0.77198 c -1.79732,0.27798 -3.6748,0.54081 -5.34942,1.20478 -1.74683,0.6926 -3.68013,1.6283 -5.68375,1.67259 m 0,1.75449 v 0.70179 c 1.67011,0 3.29868,-0.67043 4.76433,-1.25152 1.15171,-0.45665 2.44175,-0.81668 3.67772,-1.07613 0.58418,-0.12259 1.1629,-0.24247 1.75527,-0.33918 0.17627,-0.0288 0.6019,-0.0254 0.71047,-0.15208 0.1222,-0.14252 0.11978,-0.58192 0.12538,-0.76024 -0.58517,0.013 -1.18265,0.15714 -1.75528,0.25734 -1.42997,0.25012 -2.85859,0.63436 -4.17923,1.15796 -1.61,0.63835 -3.27668,1.34128 -5.09866,1.46206 m 10.53166,-1.12288 -0.91943,0.16373 -2.75829,0.63162 -4.09564,1.49722 -1.92244,0.44443 -0.79405,0.15208 -0.0418,0.69008 c 1.54697,0 3.15648,-0.64326 4.51356,-1.18133 1.26881,-0.50311 2.6533,-0.89204 4.01206,-1.19306 0.44158,-0.0978 0.89043,-0.19088 1.33734,-0.26906 0.12137,-0.0212 0.29883,0.002 0.40397,-0.0584 0.13216,-0.0753 0.16199,-0.26767 0.20896,-0.38599 0.073,-0.18345 0.17788,-0.34093 0.0558,-0.49125 m -10.44805,5.33365 2.59111,-0.51462 4.09565,-1.42704 1.33734,-0.3509 0.91943,-0.19882 0.66867,-0.94742 c -1.52382,0.23567 -3.11184,0.64895 -4.51356,1.20477 -0.95687,0.3794 -1.89427,0.82384 -2.92546,1.06434 -0.53268,0.1243 -1.05534,0.22739 -1.5881,0.33925 -0.16675,0.035 -0.52099,0.0168 -0.62688,0.14036 -0.13985,0.1631 -0.0369,0.53309 0.0417,0.69008 m -0.0836,1.40359 c 1.03302,0 2.01247,-0.0717 3.00904,-0.30409 0.76395,-0.17818 1.44526,-0.54923 2.17319,-0.79542 0.862,-0.29152 2.11429,-0.87576 2.59112,-1.56731 -1.06854,0.0708 -2.22685,0.6646 -3.1762,1.04097 -0.90296,0.35806 -1.82181,0.62838 -2.75829,0.91233 -0.39862,0.12092 -0.83619,0.16577 -1.25377,0.23399 -0.14811,0.024 -0.44902,0.0304 -0.5433,0.14035 -0.0734,0.0854 -0.0417,0.241 -0.0417,0.33918 z"
           id="path1049" /></g></g><path
       style="fill:#020202;stroke:none;stroke-width:0.185886"
       d="m 183.6723,244.40644 c -0.30383,-1.44332 1.51456,-2.58011 1.05337,-4.08949 -0.87218,-2.85436 -5.23418,-1.37469 -6.22719,0.55767 -1.35972,2.64591 0.72889,5.64773 0.46473,8.36486 -0.24012,2.46954 -2.16867,4.60342 -2.16867,7.06365 0,1.95403 1.88852,3.08198 3.71771,2.7264 1.88789,-0.36714 3.31666,-1.77782 3.65575,-3.65582 0.17058,-0.94475 -0.36281,-1.90779 -0.61962,-2.7883 -0.25544,-0.87582 0.0978,-1.61126 0.30981,-2.41651 2.42044,0.76434 2.21699,3.52419 2.4165,5.57658 0.11735,1.20694 0.88234,2.41651 2.23063,2.41651 1.92516,0 3.88916,-1.47462 3.71773,-3.53182 -0.25572,-3.06847 -4.16883,-4.4277 -4.46125,-7.43544 -0.29305,-3.01427 3.94409,-2.49506 5.32874,-4.46124 1.48006,-2.10175 0.24245,-5.17971 -2.54048,-4.21342 -1.55295,0.53923 -3.18421,2.07531 -4.27537,3.28397 -0.87306,0.96714 -1.42599,1.98326 -2.60239,2.6024 m 28.06875,-0.4957 c -1.28819,0.17892 -1.9323,1.40584 -2.16872,2.54044 -0.31861,1.52962 0.45616,2.95749 0.30986,4.46127 -0.2162,2.2241 -1.70327,3.78877 -1.08428,6.13423 0.20301,0.76973 0.64967,1.51684 1.45605,1.79693 1.76776,0.61383 4.27277,-0.60149 4.46126,-2.54048 0.0686,-0.70561 -0.76789,-2.97654 0.37177,-3.22201 0.70488,-0.15185 0.99951,1.38535 0.99133,1.85885 -0.0211,1.23527 -0.99861,3.92336 1.05342,4.15142 0.28701,0.0321 0.64185,0.028 0.92942,0 1.95364,-0.18996 2.97416,-1.44319 2.97416,-3.34591 0,-0.92074 -0.88444,-2.83781 0.74356,-3.06712 0.85062,-0.11984 1.45492,1.30176 1.33226,1.98279 -0.19279,1.06871 -0.87129,2.9391 0.18586,3.81069 0.52122,0.42978 1.74713,0.3099 2.38547,0.2478 2.02391,-0.19684 3.36005,-2.56466 2.91227,-4.46123 -0.23888,-1.01127 -0.8759,-1.93482 -0.9915,-2.97419 -0.063,-0.5678 0.25539,-1.1123 0.30985,-1.67298 0.14052,-1.44605 -0.0898,-2.81504 -1.11532,-3.90358 -1.31791,-1.39901 -3.24462,-1.85459 -5.01889,-1.11531 -0.46195,0.19249 -0.99207,0.75735 -1.4871,0.80547 -0.63238,0.0616 -1.3049,-0.77466 -2.04474,-0.80547 -0.69355,-0.0289 -1.38503,0.0279 -2.04476,0.24783 -0.43439,0.14483 -1.02384,0.59535 -1.48706,0.58866 -0.46472,-0.006 -0.64131,-0.56168 -0.92944,-0.83649 -0.45114,-0.4304 -1.41923,-0.76845 -2.04473,-0.68161 m -8.92252,12.95004 c 0.0657,0.83091 0.38794,1.85906 1.1153,2.35462 0.82852,0.56436 2.45036,0.41954 2.94316,-0.49576 0.77514,-1.43951 -0.15485,-3.34406 -0.15485,-4.833 0,-0.56827 0.17899,-1.30475 0.30988,-1.85887 0.44758,-1.89603 1.67072,-6.82865 -1.6111,-6.6919 -0.3818,0.0166 -0.76248,0.091 -1.1153,0.24786 -1.05584,0.46927 -1.17872,1.34995 -1.33224,2.35455 -0.22456,1.46971 -0.19521,3.11696 -0.86736,4.46126 -0.38757,0.77497 -1.17701,1.85834 -2.19978,1.73492 -0.74242,-0.0895 -1.31549,-1.05053 -1.36308,-1.73492 -0.049,-0.70288 0.39685,-1.40296 0.61957,-2.04474 0.38794,-1.11702 0.79744,-2.52781 0.43384,-3.7177 -0.48442,-1.5851 -2.25237,-1.93742 -3.43887,-0.86749 -1.00193,0.90331 -1.35361,2.36362 -1.08445,3.65574 0.14149,0.67889 0.44853,1.3395 0.34089,2.04475 -0.29852,1.95306 -1.51633,3.5099 -0.71264,5.57658 0.89723,2.30684 4.68929,2.13876 6.44407,1.11531 0.60933,-0.35542 1.10006,-0.89412 1.67296,-1.30121 z"
       id="path95604" /><path
       style="fill:#020202;stroke:none;stroke-width:0.185886"
       d="m 183.97021,274.13743 c -1.34361,-0.0354 -2.10036,-1.36268 -3.53183,-1.08435 -2.7177,0.52844 -3.77018,4.56376 -1.85885,6.47502 1.10305,1.10305 2.6868,1.06589 4.08947,0.92944 2.53313,-0.2463 5.12143,-1.87764 5.39069,-4.64715 0.19395,-1.99477 -0.72203,-3.92551 -2.04475,-5.39067 -0.70205,-0.77767 -1.49487,-1.48452 -2.23062,-2.23063 -0.29178,-0.29589 -0.7827,-0.67929 -0.86746,-1.11532 -0.0923,-0.47374 0.4675,-0.93139 0.68157,-1.30119 0.4688,0.45648 0.98655,1.0295 1.67296,1.11532 2.57933,0.3224 4.15947,-2.50045 2.41654,-4.46128 -3.32976,-3.74597 -11.52573,0.31846 -9.97589,5.39069 0.61916,2.02636 3.02088,2.96895 4.5852,4.12047 0.81789,0.60207 1.64434,1.11205 1.67297,2.19965 m 24.53692,-4.08948 c -1.01905,-0.58991 -1.84047,-1.45659 -3.16006,-1.05336 -2.82436,0.86299 -3.5995,5.48085 -3.19111,7.9311 0.13717,0.82293 0.25446,1.72801 0.83648,2.38549 1.05844,1.19561 3.24464,1.65196 4.77113,1.27035 0.46546,-0.1165 0.85026,-0.53202 1.30119,-0.61976 0.34743,-0.0674 0.63127,0.18572 0.92945,0.30988 0.93891,0.39129 2.3758,0.72366 3.12901,-0.1859 1.01678,-1.22776 -0.35264,-3.2463 -0.77439,-4.46125 -0.78966,-2.27396 -0.49876,-4.45215 0.24777,-6.69187 0.56564,-1.69691 1.59993,-4.17372 0.7125,-5.94836 -1.15919,-2.31855 -3.61287,-1.13169 -4.3683,0.74356 -0.82479,2.04808 0.31823,4.2793 -0.43367,6.32012 m -14.8709,2.60237 c 2.3645,2.17787 8.21208,0.90201 7.40441,-2.97415 -0.0995,-0.47765 -0.29109,-0.90996 -0.58852,-1.30121 -2.08636,-2.74316 -7.15279,-1.89977 -9.23237,0.37175 -2.21764,2.42236 -2.21414,6.89398 -0.71256,9.66609 1.46701,2.70836 6.31923,2.88141 8.70565,1.45603 1.30733,-0.7807 3.09016,-2.80465 1.98284,-4.4302 -1.49807,-2.19929 -3.42774,0.18329 -4.95702,0.65059 -0.79409,0.24265 -1.73865,-0.45806 -2.19965,-1.02236 -0.21537,-0.26362 -0.43027,-0.59887 -0.52669,-0.92943 -0.14217,-0.48735 0.0854,-0.99824 0.12384,-1.48711 m 25.09456,0 c 1.51386,1.23493 3.97015,1.2923 5.76246,0.49572 1.82541,-0.81126 2.36113,-2.9696 1.2393,-4.58519 -2.05886,-2.96471 -7.23597,-2.13072 -9.41825,0.18586 -2.12337,2.25402 -2.16131,6.62009 -0.89839,9.2943 1.32871,2.81376 6.132,3.44838 8.70558,1.98284 1.37705,-0.78424 3.33275,-2.87637 2.16874,-4.58522 -1.49807,-2.19929 -3.42775,0.18329 -4.95702,0.65059 -0.7941,0.24267 -1.73859,-0.45806 -2.19961,-1.02236 -0.21543,-0.26364 -0.43032,-0.59887 -0.52678,-0.92943 -0.14202,-0.48735 0.0854,-0.99824 0.12399,-1.48711 m -22.1204,-3.50083 c 1.18539,-0.20036 1.78729,1.3204 0.55768,1.76594 -1.38505,0.50177 -2.05163,-1.51342 -0.55768,-1.76594 m 25.09458,0 c 1.24768,-0.24601 1.79344,1.31814 0.55767,1.76594 -1.38841,0.503 -1.98917,-1.4837 -0.55767,-1.76594 m -15.05673,3.53183 c 1.34933,-0.20617 1.84806,1.97408 0.37177,2.19964 -1.53823,0.23499 -1.91275,-1.96419 -0.37177,-2.19964 z"
       id="path95606" /></g></svg>
