<?xml version="1.0" encoding="UTF-8" standalone="no"?>
<!-- Created with Inkscape (http://www.inkscape.org/) -->

<svg
   width="139mm"
   height="46mm"
   viewBox="0 0 139 46"
   version="1.1"
   id="svg6625"
   inkscape:export-filename="alkalina-rica.svg"
   inkscape:export-xdpi="109.7"
   inkscape:export-ydpi="109.7"
   xmlns:inkscape="http://www.inkscape.org/namespaces/inkscape"
   xmlns:sodipodi="http://sodipodi.sourceforge.net/DTD/sodipodi-0.dtd"
   xmlns="http://www.w3.org/2000/svg"
   xmlns:svg="http://www.w3.org/2000/svg">
  <sodipodi:namedview
     id="namedview6627"
     pagecolor="#ffffff"
     bordercolor="#666666"
     borderopacity="1.0"
     inkscape:showpageshadow="2"
     inkscape:pageopacity="0.0"
     inkscape:pagecheckerboard="0"
     inkscape:deskcolor="#d1d1d1"
     inkscape:document-units="mm"
     showgrid="false" />
  <defs
     id="defs6622">
    <linearGradient
       id="linearGradient12194"
       inkscape:swatch="solid">
      <stop
         style="stop-color:#3d0d54;stop-opacity:1;"
         offset="0"
         id="stop12192" />
    </linearGradient>
  </defs>
  <g
     inkscape:label="Camada 1"
     inkscape:groupmode="layer"
     id="layer1">
    <path
       d="m 101.94629,36.207577 c 4.45255,-1.5889 -3.684125,-3.94416 -0.0976,-4.83494 3.2879,-0.12621 1.70974,-3.90345 -0.79024,-4.38572 -2.684945,-0.42509 -3.918645,-2.49546 0.88212,-2.68519 2.55571,-0.91147 -7.710175,-3.29607 -3.284135,-3.88235 5.408785,-0.51443 -1.89277,-3.765267 1.1868,-3.931385 3.649925,0.295142 4.086755,-3.152279 -0.90741,-3.301504 -18.773832,2.485894 -43.331657,1.731577 -62.671286,-0.009 -2.026173,-0.182304 -1.14933,2.596543 -3.214686,2.27548 -17.577599,-2.735529 -31.1613298,-0.771089 -32.50152075,2.536138 1.35552095,3.071081 5.68714295,4.226751 2.07319095,4.495471 -3.02342895,0.58196 -0.645181,2.8936 2.300272,3.35054 7.8528188,1.17588 -2.17653,1.88344 4.373057,4.41387 3.7675688,1.93852 -3.519557,2.45667 0.475423,4.28041 4.0884848,1.61653 3.6861498,2.90185 0.6506668,2.78598 -4.6818878,-0.2447 -2.7561198,4.1778 1.237736,3.86095 12.068214,0.18582 23.025382,-3.16423 36.203128,0.55641 0.764049,-0.005 0.849212,-0.80765 0.263532,-0.95778 l 0.05822,-0.26744 c 0.174919,-0.0848 0.162325,-1.28108 0.103342,-1.42208 l -0.07556,-0.3096 c 0.629032,-0.16551 -0.408918,-0.7532 0.724366,-0.96003 13.161486,2.40481 9.309546,-3.35024 20.644862,-1.86072 6.730299,1.285 10.39747,0.36489 17.284925,2.74216 0.631671,-0.0652 0.815224,-0.70537 0.74872,-1.12815 -1.986483,-0.44237 -0.530953,-0.5534 -0.06764,-0.42981 l -0.07918,-0.65399 c -1.598352,-0.50769 0.08498,-0.23056 0.08498,-0.23056 l -0.06419,-0.21443 14.457937,0.16773 z"
       style="fill:none;fill-opacity:1;fill-rule:evenodd;stroke:#005162;stroke-width:1.01007;stroke-opacity:1"
       id="path5318-9" />
    <path
       d="m 118.59365,6.0512069 c -9.33159,-8.554407 -23.791215,-7.968304 -32.296281,1.309548 -8.505065,9.2775071 -7.835023,23.7334121 1.496832,32.2879121 9.331594,8.55466 23.791219,7.9683 32.296289,-1.30929 8.50506,-9.27777 7.83502,-23.7335 -1.49684,-32.2881701"
       style="fill:#005162;fill-opacity:1;fill-rule:evenodd;stroke:none;stroke-width:0.862679"
       id="path2240" />
    <g
       id="g2254"
       transform="matrix(0.86267881,0,0,-0.86267881,-300.4406,659.99048)">
      <path
         d="m 489.2692,725.5502 c -7.1181,-11.8655 -22.5473,-15.6903 -34.4622,-8.5427 -11.9149,7.1475 -15.8034,22.5609 -8.6854,34.4267 7.1181,11.8656 22.5474,15.6904 34.4622,8.5428 11.9149,-7.1478 15.8035,-22.5609 8.6854,-34.4268"
         style="fill:#c4e9f7;fill-opacity:1;fill-rule:evenodd;stroke:none"
         id="path2256" />
      <path
         d="m 489.2692,725.5502 c -7.1181,-11.8655 -22.5473,-15.6903 -34.4622,-8.5427 -11.9149,7.1475 -15.8034,22.5609 -8.6854,34.4267 l 0.6273,-0.3764 c -3.4537,-5.7577 -4.2372,-12.3798 -2.7107,-18.43 1.5256,-6.0477 5.3614,-11.5237 11.1449,-14.993 5.7833,-3.4694 12.4203,-4.2758 18.4746,-2.7751 6.0539,1.5003 11.5265,5.3087 14.9816,11.0684 z m -43.1476,25.884 c 7.1181,11.8656 22.5474,15.6904 34.4622,8.5428 11.9149,-7.1478 15.8035,-22.5609 8.6854,-34.4268 l -0.6273,0.3765 c 3.4537,5.7577 4.2372,12.3794 2.7108,18.4297 -1.5256,6.0477 -5.3615,11.524 -11.145,14.9933 -5.7833,3.4693 -12.4203,4.2758 -18.4745,2.7751 -6.054,-1.5004 -11.5266,-5.3087 -14.9817,-11.0684 z"
         style="fill:#ffffff;fill-opacity:1;fill-rule:evenodd;stroke:none"
         id="path2258" />
    </g>
    <g
       id="g2272"
       transform="matrix(0.86267881,0,0,-0.86267881,-300.4406,659.99048)">
      <path
         d="m 475.9404,714.82 c -13.0694,-4.5607 -27.3807,2.3686 -31.9652,15.4774 -0.1326,0.3799 -0.2551,0.7611 -0.3687,1.1432 19.7543,16.4713 28.4932,0.9261 46.9397,17.4807 6.0902,-13.5944 -0.3951,-29.1435 -14.6058,-34.1013"
         style="fill:#237c8c;fill-opacity:1;fill-rule:evenodd;stroke:none"
         id="path2274" />
      <path
         d="m 475.6884,715.5405 c -6.3334,-2.2101 -12.9708,-1.6347 -18.5814,1.0815 -5.6078,2.7153 -10.1883,7.5727 -12.4103,13.9271 -0.0893,0.256 -0.152,0.4391 -0.1885,0.5531 -0.008,0.0241 -0.0156,0.0484 -0.0236,0.0734 9.4553,7.7349 16.3432,7.9755 23.0695,8.2094 6.912,0.2401 13.6619,0.4759 22.7035,8.2647 0.1503,-0.3725 0.2886,-0.7404 0.415,-1.1035 2.0886,-5.9862 1.7723,-12.2284 -0.5241,-17.6264 -2.2946,-5.3935 -6.5707,-9.9459 -12.4027,-12.5586 -0.6863,-0.3076 -1.3731,-0.5823 -2.0574,-0.8207 z m 14.8578,33.3808 c 0.1106,-0.2466 0.2154,-0.4938 0.3178,-0.7415 -0.1982,-0.1761 -0.3952,-0.3478 -0.5911,-0.5168 l 0.005,-0.0105 0.5865,0.5264 c 5.5329,-13.4132 -0.9712,-28.4913 -14.9239,-33.3589 -13.0694,-4.5607 -27.3807,2.3686 -31.9652,15.4774 -0.1326,0.3799 -0.2551,0.7611 -0.3687,1.1432 19.7543,16.4713 28.4932,0.9261 46.9397,17.4807 z m -46.2104,-17.261 0.008,-0.0278 z"
         style="fill:#fffbfd;fill-opacity:1;fill-rule:evenodd;stroke:none"
         id="path2276" />
    </g>
    <path
       d="m 92.032295,34.676957 c 3.78353,-1.36399 -3.13058,-3.38584 -0.0829,-4.15052 2.79387,-0.10836 1.45284,-3.35091 -0.67151,-3.76491 -2.28153,-0.36491 -3.329854,-2.1422 0.74958,-2.30507 2.17171,-0.78245 -6.551698,-2.8295 -2.79068,-3.33279 4.5961,-0.44161 -1.608376,-3.232288 1.00847,-3.374888 3.10151,0.253369 3.47272,-2.706051 -0.77106,-2.834157 -15.953,2.134008 -36.820943,1.486481 -53.254714,-0.0078 -1.721734,-0.156481 -0.976639,2.228989 -2.731673,1.953362 C 18.5513,14.511886 7.0085712,16.198251 5.8697492,19.037325 c 1.151849,2.636342 4.8326408,3.628422 1.761677,3.859102 -2.569145,0.49958 -0.548231,2.484 1.954658,2.87626 6.6729058,1.00942 -1.849496,1.61683 3.7159888,3.78906 3.201488,1.66411 -2.990735,2.1089 0.403993,3.67449 3.474181,1.38771 3.132301,2.49107 0.55289,2.39161 -3.978416,-0.21006 -2.342,3.58641 1.051779,3.31441 10.254921,0.15951 19.565727,-2.71632 30.76347,0.47766 0.649253,-0.004 0.721632,-0.69333 0.223949,-0.82222 l 0.04945,-0.22954 c 0.14863,-0.0726 0.137944,-1.09975 0.08781,-1.22078 l -0.06409,-0.26579 c 0.534515,-0.14208 -0.347487,-0.64658 0.615521,-0.82412 11.18394,2.0644 7.910765,-2.876 17.542919,-1.59733 5.719043,1.1031 8.835212,0.31324 14.687797,2.35399 0.536758,-0.0558 0.69273,-0.60552 0.636225,-0.96845 -1.688003,-0.37975 -0.451182,-0.47507 -0.05747,-0.36896 l -0.0672,-0.56144 c -1.358201,-0.43582 0.07211,-0.1979 0.07211,-0.1979 l -0.05451,-0.18409 12.285579,0.14398 z"
       style="fill:#c4e9f7;fill-opacity:1;fill-rule:evenodd;stroke:none;stroke-width:0.862679"
       id="path5318" />
    <g
       id="g5646"
       transform="matrix(0.99170105,-0.03167757,-0.01739161,-0.86240275,-300.4406,659.99048)">
      <text
         xml:space="preserve"
         transform="matrix(1,0,0,-1,412.19,701.2994)"
         style="font-variant:normal;font-weight:normal;font-size:28.956px;font-family:Arial;-inkscape-font-specification:ArialMT;writing-mode:lr-tb;fill:#ffffff;fill-opacity:1;fill-rule:nonzero;stroke:#ffffff;stroke-width:0.9828;stroke-linecap:round;stroke-linejoin:miter;stroke-miterlimit:22.9256;stroke-dasharray:none;stroke-opacity:1"
         id="text5650"><tspan
           x="0"
           y="0"
           id="tspan5648">8</tspan></text>
    </g>
    <text
       xml:space="preserve"
       transform="scale(1.0454186,0.95655463)"
       style="font-variant:normal;font-weight:normal;font-size:20.695px;font-family:Caeldera;-inkscape-font-specification:Caeldera;writing-mode:lr-tb;fill:#000000;fill-opacity:1;fill-rule:nonzero;stroke:none;stroke-width:0.825199"
       id="text5654"
       x="22.946554"
       y="33.546009"><tspan
         x="22.946554"
         y="33.546009"
         sodipodi:role="line"
         id="tspan5652"
         style="stroke-width:0.825199">Leve</tspan></text>
    <path
       d="m 91.768905,15.083713 c 0.004,0.620958 0.14942,1.111219 0.43505,1.46828 0.28538,0.356719 0.67815,0.531843 1.17575,0.528392 0.49768,-0.0044 0.88994,-0.18514 1.17548,-0.546248 0.28469,-0.361463 0.4253,-0.853707 0.42065,-1.474836 -0.004,-0.62087 -0.15157,-1.111476 -0.43989,-1.468194 -0.28787,-0.356805 -0.6828,-0.5321 -1.1848,-0.528217 -0.49768,0.0034 -0.88821,0.185141 -1.16815,0.545816 -0.2808,0.361377 -0.41823,0.853707 -0.41409,1.475007 z m -2.1296,7.516434 -0.0827,-11.517278 2.26617,-0.01712 0.01,1.344485 c 0.30978,-0.542366 0.65805,-0.947307 1.04781,-1.214826 0.38984,-0.267774 0.82265,-0.403044 1.30092,-0.406406 0.98086,-0.0078 1.76435,0.369916 2.34985,1.132438 0.58567,0.764678 0.88321,1.802222 0.89252,3.114183 0.009,1.276938 -0.27096,2.313359 -0.84292,3.105903 -0.57247,0.792543 -1.32421,1.192567 -2.25314,1.199727 -0.58965,0.0044 -1.07137,-0.115936 -1.44352,-0.36172 -0.37199,-0.242851 -0.70507,-0.648304 -0.99899,-1.216118 0.0249,0.156749 0.0428,0.351197 0.0562,0.575407 0.0132,0.226443 0.0198,0.507169 0.0222,0.839558 l 0.0247,3.404217 z m 9.47048,-3.603063 -0.0834,-11.5823251 2.758935,-0.02103 0.0325,4.5039611 3.67829,-0.02812 -0.032,-4.5034431 2.75841,-0.02103 0.0833,11.5823281 -2.75859,0.02103 -0.034,-4.714196 -3.67863,0.02785 0.0337,4.713937 z"
       style="fill:#005162;fill-opacity:1;fill-rule:nonzero;stroke:none;stroke-width:0.862679"
       id="path2282" />
  </g>
</svg>
