<?xml version="1.0" encoding="UTF-8" standalone="no"?>
<!-- Created with Inkscape (http://www.inkscape.org/) -->

<svg
   width="65.106804mm"
   height="110.53248mm"
   viewBox="0 0 65.106803 110.53248"
   version="1.1"
   id="svg5"
   xml:space="preserve"
   inkscape:export-filename="quantity.svg"
   inkscape:export-xdpi="96"
   inkscape:export-ydpi="96"
   xmlns:inkscape="http://www.inkscape.org/namespaces/inkscape"
   xmlns:sodipodi="http://sodipodi.sourceforge.net/DTD/sodipodi-0.dtd"
   xmlns="http://www.w3.org/2000/svg"
   xmlns:svg="http://www.w3.org/2000/svg"><sodipodi:namedview
     id="namedview7"
     pagecolor="#ffffff"
     bordercolor="#000000"
     borderopacity="0.25"
     inkscape:showpageshadow="2"
     inkscape:pageopacity="0.0"
     inkscape:pagecheckerboard="0"
     inkscape:deskcolor="#d1d1d1"
     inkscape:document-units="mm"
     showgrid="false" /><defs
     id="defs2" /><g
     inkscape:label="Camada 1"
     inkscape:groupmode="layer"
     id="layer1"><path
       style="fill:#000000;stroke-width:0.264583"
       d="m 6.455086,110.22372 c -2.72676,-0.85917 -5.07219,-3.20027 -5.90388003,-5.89295 -0.67804,-2.19524 -0.74476,-6.73002 -0.12098,-8.22328 0.54586,-1.30675 1.58771003,-2.3589 2.69894003,-2.72564 l 0.9059,-0.29898 -0.80036,-0.48673 C 2.266516,92.00735 1.871396,91.32633 1.871396,90.2464 v -0.81114 h 30.69167 30.69166 v 0.89036 c 0,1.00172 -0.78219,2.16133 -1.64194,2.43421 -0.50738,0.16103 -0.44314,0.24246 0.58638,0.74324 0.6359,0.30932 1.52049,1.02011 1.96576,1.57954 l 0.80959,1.01714 v 3.87765 c 0,3.69954 -0.0336,3.94602 -0.73134,5.3663 -0.86249,1.75559 -2.88528,3.74093 -4.63514,4.54933 l -1.2481,0.5766 -25.4,0.0511 c -20.37285,0.041 -25.61867,-0.0178 -26.50485,-0.29702 z M 0.66874597,86.40457 c -0.61482,-0.61481 -0.64943,-0.8129 -0.64943,-3.71619 0,-2.90329 0.0346,-3.10138 0.64943,-3.71619 L 1.318176,78.32276 h 31.24489 31.24488 l 0.64943,0.64943 c 0.61482,0.61481 0.64943,0.8129 0.64943,3.71619 0,2.90329 -0.0346,3.10138 -0.64943,3.71619 l -0.64943,0.64944 H 32.563066 1.318176 Z M 1.871396,75.28005 v -0.66146 h 30.69167 30.69166 v 0.66146 0.66146 H 32.563066 1.871396 Z M 0.56768597,71.5402 c -0.48149,-0.6121 -0.54735,-1.05587 -0.53996,-3.63802 0.009,-3.17727 0.17064,-3.64632 1.41943003,-4.12111 1.00527,-0.3822 61.22654,-0.3822 62.23181,0 1.24879,0.47479 1.41034,0.94384 1.41943,4.12111 0.007,2.58215 -0.0585,3.02592 -0.53996,3.63802 l -0.54837,0.69714 h -31.447 -31.44701 z M 2.084646,61.09313 c -0.14593,-0.0902 -0.2233,-0.38216 -0.17195,-0.6488 0.0899,-0.46661 1.24324,-0.48529 30.72086,-0.49747 29.4245,-0.0121 30.63353,0.006 30.78079,0.47031 0.0843,0.26563 0.0886,0.54764 0.01,0.62669 -0.20139,0.20138 -61.01414,0.25024 -61.33926,0.0493 z M 1.366226,57.39231 C 0.20507597,56.93628 0.03668597,56.4201 0.02772597,53.28917 c -0.007,-2.58216 0.0585,-3.02592 0.53996,-3.63802 L 1.116056,48.95401 h 31.44701 31.447 l 0.54837,0.69714 c 0.47777,0.60738 0.54837,1.06446 0.54837,3.55023 0,1.5692 -0.0739,3.04583 -0.16435,3.2814 -0.44894,1.16991 0.13339,1.14906 -32.24875,1.15462 -18.68492,0.003 -30.93937,-0.0927 -31.32748,-0.24509 z M 1.871396,45.9113 v -0.66146 h 30.69167 30.69166 v 0.66146 0.66146 H 32.563066 1.871396 Z m -0.95250003,-3.94229 -0.89958,-0.89959 0.003,-2.73844 c 0.003,-3.01046 0.35059,-4.67498 1.40969003,-6.75949 1.25817,-2.47631 2.65812,-3.53261 12.08092,-9.11536 l 8.86354,-5.25141 h 10.18646 10.18646 l 8.86354,5.25141 c 9.4228,5.58275 10.82276,6.63905 12.08093,9.11536 1.0591,2.08451 1.40623,3.74903 1.40968,6.75949 l 0.003,2.73844 -0.89958,0.89959 -0.89958,0.89958 H 32.562796 1.818206 Z M 22.298866,12.90453 l 0.0777,-1.918234 10.2526,-0.0693 10.2526,-0.0692 v 1.98748 1.987484 h -10.3303 -10.33034 z m -1.06677,-5.837894 c -0.51157,-0.54454 -0.57528,-0.90573 -0.57528,-3.26117 0,-4.12566998 -1.02569,-3.79937998 11.94332,-3.79937998 h 10.7186 l 0.57529,0.61236 c 0.51157,0.54454998 0.57529,0.90572998 0.57529,3.26116998 0,4.12567 1.02568,3.79938 -11.94333,3.79938 h -10.7186 z"
       id="path912"
       sodipodi:nodetypes="sssscsscccsssscssscsssssscccssscccscccccccccscsscscccscccccccccscccsscccccccccccccccsscccssccccccccccccccccssscssscs" /></g></svg>
