<svg xmlns="http://www.w3.org/2000/svg" viewBox="0 0 88.56 25.382" height="1em" width="1em">
  <path d="M86.63 20.208c3.784-1.364-3.13-3.386-.083-4.15 2.794-.109 1.453-3.352-.671-3.766-2.282-.365-3.33-2.142.75-2.305 2.171-.782-6.552-2.83-2.791-3.332 4.596-.442-1.609-3.233 1.008-3.375 3.102.253 3.473-2.706-.771-2.835C68.119 2.58 47.252 1.932 30.817.437c-1.721-.156-.976 2.23-2.731 1.954C13.149.043 1.606 1.729.468 4.568 1.619 7.204 5.3 8.196 2.229 8.428c-2.569.499-.548 2.483 1.955 2.875 6.673 1.01-1.85 1.617 3.716 3.79 3.201 1.664-2.99 2.108.404 3.674 3.474 1.388 3.132 2.491.553 2.392-3.979-.21-2.342 3.586 1.052 3.314 10.255.16 19.565-2.716 30.763.478.65-.004.722-.694.224-.823l.05-.23c.148-.072.137-1.099.087-1.22l-.064-.266c.535-.142-.347-.646.616-.824 11.184 2.065 7.91-2.876 17.543-1.597 5.719 1.103 8.835.313 14.687 2.354.537-.056.693-.606.637-.969-1.688-.38-.452-.475-.058-.369l-.067-.561c-1.358-.436.072-.198.072-.198l-.055-.184 12.286.144z" style="fill:#c4e9f7;fill-opacity:1;fill-rule:evenodd;stroke:#005162;stroke-width:.862679;stroke-opacity:1"/>
  <text xml:space="preserve" x="18.459" y="19.138" style="font-variant:normal;font-weight:400;font-size:20.695px;font-family:Caeldera;-inkscape-font-specification:Caeldera;writing-mode:lr-tb;fill:#005162;fill-opacity:1;fill-rule:nonzero;stroke:none;stroke-width:.825199" transform="scale(1.04542 .95655)"><tspan x="18.459" y="19.138" style="stroke-width:.825199;fill:#005162;fill-opacity:1">Leve</tspan></text>
</svg>
