<?xml version="1.0" encoding="UTF-8" standalone="no"?>
<!-- Created with Inkscape (http://www.inkscape.org/) -->

<svg
   width="135.44mm"
   height="62.980999mm"
   viewBox="0 0 135.44 62.980998"
   version="1.1"
   id="svg5"
   xml:space="preserve"
   inkscape:export-filename="quantity.svg"
   inkscape:export-xdpi="96"
   inkscape:export-ydpi="96"
   xmlns:inkscape="http://www.inkscape.org/namespaces/inkscape"
   xmlns:sodipodi="http://sodipodi.sourceforge.net/DTD/sodipodi-0.dtd"
   xmlns="http://www.w3.org/2000/svg"
   xmlns:svg="http://www.w3.org/2000/svg"><sodipodi:namedview
     id="namedview7"
     pagecolor="#ffffff"
     bordercolor="#000000"
     borderopacity="0.25"
     inkscape:showpageshadow="2"
     inkscape:pageopacity="0.0"
     inkscape:pagecheckerboard="0"
     inkscape:deskcolor="#d1d1d1"
     inkscape:document-units="mm"
     showgrid="false" /><defs
     id="defs2" /><g
     inkscape:label="Camada 1"
     inkscape:groupmode="layer"
     id="layer1"><path
       style="fill:#000000;stroke-width:0.264583"
       d="m 1.2874509,62.640899 c -1.37638997,-0.69642 -1.32861997,0.49669 -1.25992997,-31.468989 l 0.0641,-29.82447 0.60258,-0.60262 L 1.2967809,0.1422 21.133261,0.0711 40.969747,0 v 7.28097 7.28096 h -3.571875 -3.571875 v 2.38125 2.38125 h 9.657291 9.657291 V 16.94318 14.56193 H 49.568707 45.996832 V 7.28589 0.00985 h 20.505203 20.50521 v 31.48541 31.485419 l -42.531767,-0.004 c -33.583907,-0.003 -42.6698271,-0.0738 -43.1880171,-0.33595 z m 51.8531201,-6.9362 v -2.51354 H 45.86453 38.588489 V 49.61928 46.04741 h 7.276041 7.276041 V 37.58074 29.11408 H 43.48328 33.825989 v 2.38124 2.38125 h 7.283508 7.283508 l -0.07361,3.63803 -0.07361,3.63802 -7.209896,0.0704 -7.209895,0.0704 v 8.46242 8.462409 h 9.657291 9.657291 z m 38.752324,6.94998 c -0.0706,-0.18447 -0.0974,-6.70524 -0.0596,-14.490609 l 0.0688,-14.1552 21.768805,-0.0677 21.76881,-0.0677 -0.073,13.88497 -0.073,13.884969 -0.60258,0.6025 -0.60259,0.60251 -21.03361,0.0708 c -16.79092,0.0565 -21.059505,0.003 -21.162005,-0.26458 z M 123.25514,48.42866 v -2.38125 h -9.65729 -9.65729 v 2.38125 2.38125 h 9.65729 9.65729 z M 91.891105,28.78335 c -0.0696,-0.18191 -0.0957,-6.70058 -0.0579,-14.48594 l 0.0688,-14.15521 h 21.093215 21.09322 l 0.60261,0.6025 0.60261,0.60251 0.073,13.88343 0.073,13.88344 h -21.71097 c -17.12485,0 -21.737705,-0.0699 -21.837565,-0.33073 z m 24.220285,-8.13594 v -3.70417 h 3.57188 3.57187 v -2.38125 -2.38125 h -3.57187 -3.57188 V 8.47657 4.77241 h -2.37378 -2.37378 l -0.0736,3.63802 -0.0736,3.63802 -3.63802,0.0736 -3.63802,0.0736 v 2.36631 2.36632 l 3.63802,0.0736 3.63802,0.0736 0.0736,3.63802 0.0736,3.63803 h 2.37378 2.37378 z"
       id="path856" /></g></svg>
