<svg xmlns="http://www.w3.org/2000/svg" viewBox="0 0 45.454 45.7" height="1em" width="1em">
  <path d="M45.049 27.074c2.347-12.4-5.745-24.343-18.073-26.676C14.648-1.935 2.752 6.226.405 18.626c-2.347 12.4 5.745 24.343 18.073 26.676 12.328 2.333 24.224-5.828 26.571-18.228" style="fill:#006b37;fill-opacity:1;fill-rule:evenodd;stroke:none;stroke-width:.838548"/>
  <path d="M470.307 438.408c-14.19-.207-25.86 11.175-26.069 25.423-.208 14.248 11.126 25.967 25.315 26.174 14.19.208 25.86-11.175 26.069-25.423.208-14.248-11.126-25.967-25.315-26.174" style="fill:#bada8a;fill-opacity:1;fill-rule:evenodd;stroke:none" transform="matrix(.83855 0 0 -.83855 -371.468 412.002)"/>
  <path d="M470.307 438.408c-14.19-.207-25.86 11.175-26.069 25.423-.208 14.248 11.126 25.967 25.315 26.174 14.19.208 25.86-11.175 26.069-25.423.208-14.248-11.126-25.967-25.315-26.174zm-17.755 7.831c4.58-4.466 10.856-7.178 17.744-7.078v-.003c6.885.1 13.08 2.997 17.53 7.596a25.023 25.023 0 0 1 7.046 17.817h.003a25.026 25.026 0 0 1-7.567 17.603c-4.58 4.466-10.857 7.178-17.744 7.078-6.887-.1-13.082-2.995-17.53-7.593a25.022 25.022 0 0 1-7.046-17.816v-.001h-.003a25.026 25.026 0 0 1 7.567-17.603zm17.744-7.08v.002z" style="fill:#fff;fill-opacity:1;fill-rule:evenodd;stroke:none" transform="matrix(.83855 0 0 -.83855 -371.468 412.002)"/>
  <path d="M476.694 439.328c-13.7-3.726-27.842 4.392-31.59 18.133-.108.398-.205.797-.294 1.196 21.394 15.43 34.17.124 49.626 13.234.097-.31.191-.622.277-.939 3.748-13.74-4.32-27.899-18.02-31.624" style="fill:#006838;fill-opacity:1;fill-rule:evenodd;stroke:none" transform="matrix(.83855 0 0 -.83855 -371.468 412.002)"/>
  <path d="M476.487 440.086c-6.641-1.806-13.39-.741-18.932 2.44a24.98 24.98 0 0 0-11.694 15.14h-.003a25.16 25.16 0 0 0-.15.58l-.019.076c10.736 7.576 19.287 7.279 27.125 7.005 7.26-.253 13.933-.485 21.201 5.212a24.946 24.946 0 0 0-2.45-18.764c-3.16-5.546-8.43-9.88-15.06-11.687l.206-.755-.018-.005c-13.698-3.726-27.841 4.392-31.588 18.133-.109.398-.206.797-.295 1.196 21.394 15.43 34.17.124 49.626 13.234.085-.27.167-.542.244-.817l-.24-.196.018.004.222.19.033-.12.005-.018-.293-.08.033.028-.017-.004-.035-.029-.426-.115.425.115c-.123-.1-.246-.198-.369-.294l.007-.024.382.324.293.08c3.734-13.73-4.325-27.871-18.007-31.602l-.207.758-.018-.005zm17.918 30.763.02.005z" style="fill:#fffbfd;fill-opacity:1;fill-rule:evenodd;stroke:none" transform="matrix(.83855 0 0 -.83855 -371.468 412.002)"/>
  <path d="M11.7 13.974c0 .62.142 1.109.424 1.467.282.357.673.534 1.169.534.496-.001.888-.18 1.175-.538.286-.358.43-.848.429-1.467 0-.619-.144-1.109-.43-1.466-.284-.358-.677-.535-1.177-.534-.496 0-.887.178-1.168.536-.282.359-.423.849-.422 1.468zm-2.17 7.48L9.52 9.971l2.259-.003v1.34c.313-.539.663-.94 1.053-1.204a2.27 2.27 0 0 1 1.3-.397c.977 0 1.756.38 2.335 1.144.578.766.869 1.802.87 3.11 0 1.273-.285 2.304-.86 3.09-.576.787-1.328 1.181-2.254 1.182-.588.001-1.067-.122-1.437-.37-.369-.244-.698-.65-.988-1.218.024.157.04.35.053.574.011.226.016.506.016.837l.003 3.394-2.341.003zm9.463-3.532-.01-11.547 2.75-.003.005 4.49 3.667-.005-.003-4.49 2.75-.003.009 11.547-2.75.003-.004-4.7-3.667.005.003 4.7-2.75.002z" style="fill:#004723;fill-opacity:1;fill-rule:nonzero;stroke:none;stroke-width:.838548"/>
  <text xml:space="preserve" style="font-variant:normal;font-weight:400;font-size:22.284px;font-family:Arial;-inkscape-font-specification:ArialMT;writing-mode:lr-tb;fill:#fff;fill-opacity:1;fill-rule:nonzero;stroke:#fff;stroke-width:.7571;stroke-linecap:round;stroke-linejoin:miter;stroke-miterlimit:22.9256;stroke-dasharray:none;stroke-opacity:1" transform="matrix(1.2135 0 0 .83855 15.283 38.272)"><tspan x="0" y="0">9</tspan></text>
</svg>
