<svg xmlns="http://www.w3.org/2000/svg" viewBox="0 0 98.68 30.002" height="1em" width="1em">
  <path d="M7.525 20.602c-4.663-1.392 2.262-3.455-1.376-4.236-3.125-.11-2.79-3.42-.59-3.842 2.392-.372 2.922-2.186-1.643-2.352-2.677-.798 6.238-2.888 1.904-3.401-5.234-.451.634-3.299-2.308-3.444C.175 3.585-1.282.565 3.362.434c18.382 2.178 41.21 1.517 58.84-.008 1.848-.16 1.868 2.275 3.71 1.994C81.585.023 94.936 1.744 97.199 4.642c-.34 2.69-4.057 3.702-.582 3.938 3.015.51 1.484 2.535-1.142 2.935-7.017 1.03 2.615 1.65-2.766 3.867-2.95 1.698 4.05 2.152.853 3.75-3.348 1.416-2.58 2.542.235 2.44 4.322-.214 3.856 3.66.01 3.383-11.276.163-22.58-2.772-33.824.487-.719-.004-1.043-.707-.538-.839l-.136-.234c-.19-.074-.541-1.122-.529-1.246l-.023-.271c-.641-.145.155-.66-.972-.84-11.627 2.106-9.758-2.936-19.949-1.631-5.929 1.125-9.652.32-15.396 2.402-.613-.057-.98-.618-1.046-.988 1.731-.388.33-.485-.067-.377l-.124-.573c1.346-.445-.15-.202-.15-.202l-.005-.188-13.524.147z" style="fill:#d7c1de;fill-opacity:1;fill-rule:evenodd;stroke:#3d0d54;stroke-width:.838567;stroke-opacity:1"/>
  <g style="fill:#3d0d54;fill-opacity:1;stroke:none;stroke-opacity:1">
    <text xml:space="preserve" x="144.269" y="-324.733" style="font-variant:normal;font-weight:400;font-size:25.7282px;font-family:Caeldera;-inkscape-font-specification:Caeldera;writing-mode:lr-tb;fill:#3d0d54;fill-opacity:1;fill-rule:nonzero;stroke:none;stroke-width:.932827;stroke-opacity:1" transform="matrix(.89895 0 0 .78224 -120.919 270.782)"><tspan x="144.269" y="-324.733" style="fill:#3d0d54;fill-opacity:1;stroke:none;stroke-width:.932827;stroke-opacity:1">S</tspan></text>
    <text xml:space="preserve" x="180.699" y="-324.937" style="font-variant:normal;font-weight:400;font-size:25.7282px;font-family:Caeldera;-inkscape-font-specification:Caeldera;writing-mode:lr-tb;fill:#3d0d54;fill-opacity:1;fill-rule:nonzero;stroke:none;stroke-width:.932827;stroke-opacity:1" transform="matrix(.89895 0 0 .78224 -120.919 270.782)"><tspan x="180.699" y="-324.937" style="fill:#3d0d54;fill-opacity:1;stroke:none;stroke-width:.932827;stroke-opacity:1">o</tspan></text>
    <text xml:space="preserve" x="163.079" y="-324.87" style="font-variant:normal;font-weight:400;font-size:25.7282px;font-family:Caeldera;-inkscape-font-specification:Caeldera;writing-mode:lr-tb;fill:#3d0d54;fill-opacity:1;fill-rule:nonzero;stroke:none;stroke-width:.932827;stroke-opacity:1" transform="matrix(.89895 0 0 .78224 -120.919 270.782)"><tspan x="163.079" y="-324.87" style="fill:#3d0d54;fill-opacity:1;stroke:none;stroke-width:.932827;stroke-opacity:1">p</tspan></text>
    <text xml:space="preserve" x="203.109" y="-324.803" style="font-variant:normal;font-weight:400;font-size:25.7282px;font-family:Caeldera;-inkscape-font-specification:Caeldera;writing-mode:lr-tb;fill:#3d0d54;fill-opacity:1;fill-rule:nonzero;stroke:none;stroke-width:.932827;stroke-opacity:1" transform="matrix(.89895 0 0 .78224 -120.919 270.782)"><tspan x="203.109" y="-324.803" style="fill:#3d0d54;fill-opacity:1;stroke:none;stroke-width:.932827;stroke-opacity:1">r</tspan></text>
    <text xml:space="preserve" x="221.333" y="-324.764" style="font-variant:normal;font-weight:400;font-size:25.7282px;font-family:Caeldera;-inkscape-font-specification:Caeldera;writing-mode:lr-tb;fill:#3d0d54;fill-opacity:1;fill-rule:nonzero;stroke:none;stroke-width:.932827;stroke-opacity:1" transform="matrix(.89895 0 0 .78224 -120.919 270.782)"><tspan x="221.333" y="-324.764" style="fill:#3d0d54;fill-opacity:1;stroke:none;stroke-width:.932827;stroke-opacity:1">t</tspan></text>
  </g>
  <path d="M68.24 18.471c2.127-.33 1.837 2.146 2.746 2.262 1.844-.016 2.458 1.182 1.373 1.46-1.216.255-.743 1.234 1.953 1.214 1.88.361-2.35 1.687.361 1.857 3.203.116 1.049 1.773 2.803 1.78 1.808-.217 3.94 1.358 1.325 1.538-11.502-.723-24.346.172-33.83 1.405-.993.129-2.048-1.168-2.987-.974-7.985 1.65-16.399 1.05-18.94-.44-.958-1.442.745-2.07-1.353-2.112-1.953-.2-1.94-1.316-.601-1.591 3.593-.716-2.21-.817-.066-2.127.969-.975-3.25-1.05-2.097-1.977 1.319-.835.395-1.416-1.18-1.295-2.393.217-3.785-1.859-1.455-1.803 6.413-.354 14.171.94 19.24-1.064.415-.014.902.352.669.434l.178.122c.14.035.792.585.838.651l.13.144c.43.062.193.355.918.425 5.784-1.399 6.868 1.332 12.17.394 2.926-.74 5.847-.486 8.258-1.732.377.015.393.392.59.587-.83.248.017.267.2.2l.634.604c-.584.27.135.153.135.153l.545.553z" style="fill:#ed1c24;fill-opacity:1;fill-rule:evenodd;stroke:none;stroke-width:.838567"/>
  <text xml:space="preserve" x="22.544" y="27.574" style="font-variant:normal;font-weight:400;font-size:9.43615px;font-family:Caeldera;-inkscape-font-specification:Caeldera;writing-mode:lr-tb;fill:#fff;fill-opacity:1;fill-rule:nonzero;stroke:none;stroke-width:.812399" transform="skewX(-.579) scale(1.03217 .96883)"><tspan x="22.544 30.754 38.105 44.144 51.853 56.099 63.912" y="27.574" style="stroke-width:.812399">Special</tspan></text>
</svg>
