<?xml version="1.0" encoding="UTF-8" standalone="no"?>
<!-- Created with Inkscape (http://www.inkscape.org/) -->

<svg
   width="139mm"
   height="46mm"
   viewBox="0 0 139 46"
   version="1.1"
   id="svg6625"
   inkscape:export-filename="alkalina-sport.svg"
   inkscape:export-xdpi="109.7"
   inkscape:export-ydpi="109.7"
   xmlns:inkscape="http://www.inkscape.org/namespaces/inkscape"
   xmlns:sodipodi="http://sodipodi.sourceforge.net/DTD/sodipodi-0.dtd"
   xmlns="http://www.w3.org/2000/svg"
   xmlns:svg="http://www.w3.org/2000/svg">
  <sodipodi:namedview
     id="namedview6627"
     pagecolor="#ffffff"
     bordercolor="#666666"
     borderopacity="1.0"
     inkscape:showpageshadow="2"
     inkscape:pageopacity="0.0"
     inkscape:pagecheckerboard="0"
     inkscape:deskcolor="#d1d1d1"
     inkscape:document-units="mm"
     showgrid="false" />
  <defs
     id="defs6622">
    <linearGradient
       id="linearGradient12194"
       inkscape:swatch="solid">
      <stop
         style="stop-color:#3d0d54;stop-opacity:1;"
         offset="0"
         id="stop12192" />
    </linearGradient>
  </defs>
  <g
     inkscape:label="Camada 1"
     inkscape:groupmode="layer"
     id="layer1">
    <path
       d="m 95.89217,35.931949 c 4.18782,-1.55309 -3.465317,-3.85524 -0.09168,-4.72592 3.092339,-0.12337 1.608026,-3.81545 -0.743488,-4.28685 -2.525464,-0.41559 -3.685628,-2.43917 0.829734,-2.62464 2.403905,-0.89111 -7.252223,-3.22187 -3.089161,-3.7949 5.087519,-0.50281 -1.780101,-3.680399 1.11661,-3.842757 3.432857,0.288552 3.843728,-3.08121 -0.853665,-3.227202 -17.658397,2.430028 -40.757339,1.692685 -58.947886,-0.0088 -1.905784,-0.178179 -1.081114,2.537931 -3.02392,2.224112 C 14.555432,12.97125 1.7787405,14.891281 0.51833747,18.124033 c 1.27504503,3.001796 5.34932203,4.131396 1.94993303,4.393956 -2.84379903,0.56896 -0.606915,2.82853 2.163647,3.27517 7.3864725,1.14939 -2.047407,1.84102 4.1132422,4.31438 3.5438623,1.89482 -3.3104182,2.40129 0.4470967,4.18392 3.8455896,1.58008 3.4672186,2.83641 0.6120238,2.72314 -4.4035747,-0.23918 -2.5923617,4.08366 1.1641638,3.77394 11.35136,0.18161 22.405505,-3.00079 34.800254,0.63603 0.718702,-0.004 0.648943,-0.77796 0.09819,-0.92471 0.169721,-0.80921 0.466467,-2.66051 1.236237,-2.80619 12.37963,2.35061 7.684316,-3.46459 18.346298,-2.00867 6.330623,1.25605 9.77983,0.35667 16.257853,2.68025 0.594237,-0.0641 0.766953,-0.68937 0.704338,-1.10262 -1.868443,-0.43238 -0.499388,-0.5409 -0.06399,-0.42008 l -0.07447,-0.63939 c -1.503163,-0.49618 0.07965,-0.22524 0.07965,-0.22524 l -0.0608,-0.20961 13.599071,0.16395 z"
       style="fill:none;fill-opacity:1;fill-rule:evenodd;stroke:#006b37;stroke-width:0.960228;stroke-opacity:1"
       id="path5316-7" />
    <path
       d="M 125.51707,27.074269 C 127.86366,14.674495 119.77193,2.7310606 107.44393,0.39805462 95.11569,-1.9349524 83.219636,6.2259616 80.873042,18.625732 c -2.34659,12.399767 5.744891,24.343207 18.073134,26.676217 12.328244,2.333 24.224384,-5.82791 26.570894,-18.22768"
       style="fill:#006b37;fill-opacity:1;fill-rule:evenodd;stroke:none;stroke-width:0.838548"
       id="path2238" />
    <g
       id="g2248"
       transform="matrix(0.83854762,0,0,-0.83854762,-290.99942,412.0016)">
      <path
         d="m 470.3068,438.408 c -14.1891,-0.2075 -25.8604,11.175 -26.0688,25.4231 -0.2083,14.2483 11.1257,25.9668 25.3148,26.174 14.1894,0.2075 25.8608,-11.1751 26.0691,-25.4231 0.2081,-14.2481 -11.1257,-25.9668 -25.3151,-26.174"
         style="fill:#bada8a;fill-opacity:1;fill-rule:evenodd;stroke:none"
         id="path2250" />
      <path
         d="m 470.3068,438.408 c -14.1891,-0.2075 -25.8604,11.175 -26.0688,25.4231 -0.2083,14.2483 11.1257,25.9668 25.3148,26.174 14.1894,0.2075 25.8608,-11.1751 26.0691,-25.4231 0.2081,-14.2481 -11.1257,-25.9668 -25.3151,-26.174 z m -17.7548,7.831 c 4.5797,-4.466 10.8564,-7.1785 17.7438,-7.0778 v -0.003 c 6.8853,0.1004 13.0807,2.9963 17.5294,7.596 4.4473,4.5978 7.1476,10.9007 7.0467,17.8166 h 0.003 c -0.1012,6.9143 -2.9857,13.1355 -7.5668,17.6032 -4.5796,4.466 -10.8567,7.1784 -17.744,7.0778 h -6e-4 c -6.887,-0.1006 -13.0819,-2.9951 -17.5289,-7.5932 -4.447,-4.5978 -7.1473,-10.9 -7.0463,-17.816 v -6e-4 h -0.003 c 0.1012,-6.9142 2.9858,-13.1354 7.5668,-17.6031 z m 17.7438,-7.0807 v 0 0.003 z"
         style="fill:#ffffff;fill-opacity:1;fill-rule:evenodd;stroke:none"
         id="path2252" />
    </g>
    <g
       id="g2266"
       transform="matrix(0.83854762,0,0,-0.83854762,-290.99942,412.0016)">
      <path
         d="m 476.6936,439.3276 c -13.699,-3.7256 -27.8416,4.3928 -31.5887,18.1332 -0.1086,0.3983 -0.2061,0.7971 -0.2951,1.1962 21.3939,15.4304 34.1699,0.1242 49.6267,13.2341 0.0969,-0.3101 0.1907,-0.6225 0.2769,-0.9388 3.7471,-13.7404 -4.3208,-27.8992 -18.0198,-31.6247"
         style="fill:#006838;fill-opacity:1;fill-rule:evenodd;stroke:none"
         id="path2268" />
      <path
         d="m 476.4866,440.0858 c -6.6407,-1.8059 -13.3891,-0.7409 -18.9311,2.4401 -5.5418,3.181 -9.8785,8.4798 -11.6946,15.1404 l -0.003,-6e-4 c -0.051,0.188 -0.1012,0.3819 -0.1499,0.58 -0.006,0.0252 -0.0125,0.0507 -0.0187,0.0765 10.7353,7.5762 19.2863,7.2786 27.1252,7.005 7.2601,-0.2534 13.9326,-0.4853 21.2009,5.2115 1.7379,-6.5905 0.6789,-13.271 -2.4508,-18.7636 -3.1601,-5.5457 -8.4297,-9.8794 -15.0596,-11.6873 l 0.206,-0.7551 c -0.006,-0.002 -0.0116,-0.003 -0.0175,-0.005 -13.699,-3.7256 -27.8416,4.3928 -31.5887,18.1332 -0.1086,0.3983 -0.2061,0.7971 -0.2951,1.1962 21.3939,15.4304 34.1699,0.1242 49.6267,13.2341 0.0844,-0.2704 0.1666,-0.5422 0.2435,-0.8172 -0.08,-0.0658 -0.1596,-0.131 -0.2393,-0.1956 l 0.0173,0.004 0.2225,0.1888 c 0.0111,-0.0397 0.0221,-0.0793 0.0329,-0.1193 0.002,-0.006 0.003,-0.0119 0.005,-0.0179 l -0.2931,-0.0796 0.0331,0.028 -0.0173,-0.004 c -0.0119,-0.01 -0.0235,-0.0193 -0.0354,-0.0289 l -0.4252,-0.1157 v -3e-4 l 0.4249,0.1157 c -0.123,-0.0995 -0.2463,-0.1979 -0.3691,-0.2945 l 0.007,-0.0235 0.3813,0.3234 0.2934,0.0799 c 3.7337,-13.729 -4.3246,-27.8705 -18.0069,-31.6017 l -0.2069,0.7579 -0.0176,-0.005 z m 17.9184,30.7633 3e-4,3e-4 0.0196,0.005 -3e-4,-3e-4 z"
         style="fill:#fffbfd;fill-opacity:1;fill-rule:evenodd;stroke:none"
         id="path2270" />
    </g>
    <path
       d="m 92.167776,13.974224 c 6.7e-4,0.618933 0.142144,1.108393 0.424306,1.466369 0.282339,0.357472 0.672682,0.534575 1.168766,0.534071 0.496087,-8.39e-4 0.888527,-0.178773 1.175142,-0.537173 0.286196,-0.358228 0.429504,-0.84836 0.428834,-1.467375 -5.04e-4,-0.618931 -0.144069,-1.108811 -0.429086,-1.466284 -0.28477,-0.357558 -0.677211,-0.535078 -1.17774,-0.534156 -0.496336,5.04e-4 -0.886679,0.178773 -1.168095,0.536754 -0.282172,0.358229 -0.422379,0.848361 -0.422127,1.467794 z m -2.170411,7.479175 -0.0095,-11.4818144 2.25913,-0.0026 8.39e-4,1.3403344 c 0.312108,-0.53885 0.661781,-0.940264 1.052042,-1.204406 0.390343,-0.2643094 0.822698,-0.3964654 1.299498,-0.3969694 0.977913,-8.36e-4 1.756338,0.3801144 2.335355,1.1438634 0.578848,0.766097 0.869071,1.802206 0.869993,3.110007 8.39e-4,1.273166 -0.284939,2.304497 -0.860181,3.091053 -0.575749,0.786307 -1.327589,1.180171 -2.253682,1.181597 -0.587569,5.04e-4 -1.066967,-0.122414 -1.4366,-0.369882 -0.369129,-0.244352 -0.698594,-0.650546 -0.988144,-1.21841 0.02382,0.156382 0.04041,0.350095 0.05258,0.573819 0.01165,0.225813 0.0164,0.50581 0.01688,0.836953 l 0.0026,3.393855 -2.341309,0.003 z m 9.463428,-3.531545 -0.0095,-11.5466324 2.750437,-0.0033 0.004,4.4899194 3.66697,-0.005 -0.003,-4.4894174 2.74993,-0.0033 0.009,11.5464664 -2.74993,0.0033 -0.004,-4.699557 -3.66697,0.0043 0.003,4.699557 -2.750191,0.0033 z"
       style="fill:#004723;fill-opacity:1;fill-rule:nonzero;stroke:none;stroke-width:0.838548"
       id="path2280" />
    <path
       d="m 89.277747,34.392889 c 3.740928,-1.337 -3.095498,-3.31887 -0.08201,-4.06841 2.762342,-0.10621 1.436431,-3.28462 -0.66413,-3.69042 -2.255944,-0.3577 -3.292308,-2.09983 0.741192,-2.25948 2.147352,-0.76706 -6.478284,-2.77353 -2.759493,-3.26686 4.544592,-0.43287 -1.590139,-3.168339 0.997452,-3.308115 3.066485,0.248352 3.433518,-2.652519 -0.762575,-2.778176 -15.77392,2.091873 -36.407809,1.457161 -52.657101,-0.0076 -1.70242,-0.153387 -0.965755,2.184894 -2.701214,1.914723 -14.768919,-2.301839 -26.1820565,-0.648843 -27.3079725,2.13407 1.138999,2.584198 4.7784632,3.556658 1.741831,3.782688 -2.540296,0.48977 -0.542205,2.43494 1.9326841,2.81944 6.5982784,0.98945 -1.8287881,1.58484 3.6743484,3.71409 3.165684,1.63119 -2.9571382,2.06719 0.3994,3.60181 3.435194,1.36025 3.097174,2.44179 0.546648,2.34429 -3.9336259,-0.20592 -2.315648,3.51546 1.039966,3.24884 10.139971,0.15635 20.014456,-2.58326 31.086471,0.54753 0.641992,-0.004 0.579688,-0.66972 0.08771,-0.79606 0.151609,-0.69661 0.416674,-2.29034 1.104283,-2.41574 11.058515,2.02355 6.864267,-2.98257 16.388407,-1.72919 5.65508,1.08128 8.736155,0.30704 14.52289,2.30733 0.5308,-0.0546 0.685093,-0.59345 0.629162,-0.9492 -1.669045,-0.37224 -0.446108,-0.46568 -0.05676,-0.36166 l -0.06658,-0.55041 c -1.342767,-0.42712 0.07136,-0.19391 0.07136,-0.19391 l -0.05374,-0.18044 12.147788,0.14112 z"
       style="fill:#bada8a;fill-opacity:1;fill-rule:evenodd;stroke:none;stroke-width:0.842068"
       id="path5316" />
    <text
       xml:space="preserve"
       transform="scale(1.0643308,0.93955752)"
       style="font-variant:normal;font-weight:normal;font-size:20.0382px;font-family:Caeldera;-inkscape-font-specification:Caeldera;writing-mode:lr-tb;fill:#000002;fill-opacity:1;fill-rule:nonzero;stroke:none;stroke-width:0.787864"
       id="text5638"
       x="14.878427"
       y="33.144722"><tspan
         x="14.878427 32.952908 41.970112 58.341351"
         y="33.144722"
         sodipodi:role="line"
         id="tspan5636"
         style="stroke-width:0.787864">Rica</tspan></text>
    <g
       id="g5640"
       transform="matrix(1.2135042,0,0,-0.83854762,-290.99942,412.0016)">
      <text
         xml:space="preserve"
         transform="matrix(1,0,0,-1,318.7055,445.6865)"
         style="font-variant:normal;font-weight:normal;font-size:22.284px;font-family:Arial;-inkscape-font-specification:ArialMT;writing-mode:lr-tb;fill:#ffffff;fill-opacity:1;fill-rule:nonzero;stroke:#ffffff;stroke-width:0.7571;stroke-linecap:round;stroke-linejoin:miter;stroke-miterlimit:22.9256;stroke-dasharray:none;stroke-opacity:1"
         id="text5644"><tspan
           x="0"
           y="0"
           id="tspan5642">9</tspan></text>
    </g>
  </g>
</svg>
