<svg xmlns="http://www.w3.org/2000/svg" viewBox="0 0 45.723 45.7" height="1em" width="1em">
  <path d="M38.261 6.051c-9.331-8.554-23.79-7.968-32.296 1.31-8.505 9.277-7.835 23.733 1.497 32.288 9.332 8.554 23.791 7.968 32.296-1.31 8.505-9.277 7.835-23.733-1.497-32.288" style="fill:#005162;fill-opacity:1;fill-rule:evenodd;stroke:none;stroke-width:.862679"/>
  <path d="M489.27 725.55c-7.119-11.865-22.548-15.69-34.463-8.542-11.915 7.147-15.803 22.56-8.685 34.426 7.118 11.866 22.547 15.69 34.462 8.543 11.915-7.148 15.803-22.56 8.685-34.427" style="fill:#c4e9f7;fill-opacity:1;fill-rule:evenodd;stroke:none" transform="matrix(.86268 0 0 -.86268 -380.773 659.99)"/>
  <path d="M489.27 725.55c-7.119-11.865-22.548-15.69-34.463-8.542-11.915 7.147-15.803 22.56-8.685 34.426l.627-.376c-3.454-5.758-4.237-12.38-2.71-18.43a24.397 24.397 0 0 1 11.144-14.993 24.4 24.4 0 0 1 18.475-2.775c6.054 1.5 11.526 5.308 14.981 11.068zm-43.148 25.884c7.118 11.866 22.547 15.69 34.462 8.543 11.915-7.148 15.803-22.56 8.685-34.427l-.627.377c3.454 5.757 4.237 12.38 2.71 18.43a24.398 24.398 0 0 1-11.144 14.993 24.4 24.4 0 0 1-18.475 2.775c-6.054-1.5-11.526-5.309-14.981-11.069z" style="fill:#fff;fill-opacity:1;fill-rule:evenodd;stroke:none" transform="matrix(.86268 0 0 -.86268 -380.773 659.99)"/>
  <path d="M475.94 714.82c-13.069-4.56-27.38 2.369-31.965 15.477-.132.38-.255.762-.368 1.144 19.754 16.47 28.493.926 46.94 17.48 6.09-13.594-.396-29.143-14.607-34.101" style="fill:#237c8c;fill-opacity:1;fill-rule:evenodd;stroke:none" transform="matrix(.86268 0 0 -.86268 -380.773 659.99)"/>
  <path d="M475.688 715.54c-6.333-2.21-12.97-1.634-18.581 1.082a24.359 24.359 0 0 0-12.41 13.927c-.09.256-.152.44-.189.553l-.023.074c9.455 7.734 16.343 7.975 23.07 8.209 6.911.24 13.661.476 22.703 8.265.15-.373.288-.74.415-1.104 2.088-5.986 1.772-12.228-.524-17.626-2.295-5.394-6.571-9.946-12.403-12.559a25.752 25.752 0 0 0-2.058-.82zm14.858 33.381c.11-.246.216-.494.318-.741a53.635 53.635 0 0 0-.591-.517l.005-.01.586.526c5.533-13.413-.97-28.491-14.923-33.359-13.07-4.56-27.381 2.369-31.966 15.477-.132.38-.255.762-.368 1.144 19.754 16.47 28.493.926 46.94 17.48zm-46.21-17.26.008-.028z" style="fill:#fffbfd;fill-opacity:1;fill-rule:evenodd;stroke:none" transform="matrix(.86268 0 0 -.86268 -380.773 659.99)"/>
  <text xml:space="preserve" style="font-variant:normal;font-weight:400;font-size:28.956px;font-family:Arial;-inkscape-font-specification:ArialMT;writing-mode:lr-tb;fill:#fff;fill-opacity:1;fill-rule:nonzero;stroke:#fff;stroke-width:.9828;stroke-linecap:round;stroke-linejoin:miter;stroke-miterlimit:22.9256;stroke-dasharray:none;stroke-opacity:1" transform="matrix(.9917 -.03168 .0174 .8624 15.8 42.13)"><tspan x="0" y="0">8</tspan></text>
  <path d="M11.437 15.084c.004.62.149 1.11.435 1.468.285.357.678.532 1.175.528.498-.004.89-.185 1.176-.546.285-.361.425-.854.42-1.475-.003-.62-.151-1.111-.44-1.468-.287-.357-.682-.532-1.184-.528-.498.003-.888.185-1.168.546-.281.361-.419.853-.414 1.475zM9.307 22.6l-.083-11.517 2.266-.017.01 1.344c.31-.542.659-.947 1.048-1.215.39-.267.823-.403 1.301-.406.981-.008 1.765.37 2.35 1.132.586.765.883 1.803.893 3.115.009 1.277-.271 2.313-.843 3.106-.573.792-1.325 1.192-2.253 1.2-.59.004-1.072-.117-1.444-.362-.372-.243-.705-.649-.999-1.217.025.157.043.352.056.576.013.226.02.507.022.84l.025 3.404zm9.47-3.603-.083-11.582 2.759-.021.033 4.504 3.678-.028-.032-4.504 2.758-.02.084 11.581-2.759.021-.034-4.714-3.679.028.034 4.714z" style="fill:#005162;fill-opacity:1;fill-rule:nonzero;stroke:none;stroke-width:.862679"/>
</svg>
