<svg xmlns="http://www.w3.org/2000/svg" viewBox="0 0 87.555 24.956" height="1em" width="1em">
  <path d="M85.653 19.807c3.74-1.337-3.096-3.32-.082-4.069 2.762-.106 1.436-3.284-.664-3.69-2.256-.358-3.293-2.1.74-2.26 2.148-.767-6.477-2.773-2.759-3.267 4.545-.432-1.59-3.168.998-3.308 3.066.249 3.433-2.652-.763-2.778C67.35 2.527 46.715 1.892 30.466.427c-1.702-.153-.966 2.185-2.701 1.915C12.996.04 1.583 1.693.457 4.476 1.596 7.06 5.235 8.033 2.199 8.259c-2.54.49-.542 2.435 1.933 2.819 6.598.99-1.83 1.585 3.674 3.714 3.166 1.631-2.957 2.067.4 3.602 3.434 1.36 3.096 2.442.546 2.344-3.934-.206-2.316 3.516 1.04 3.25 10.14.155 20.014-2.584 31.086.547.642-.004.58-.67.088-.796.152-.697.417-2.29 1.104-2.416 11.059 2.023 6.865-2.983 16.389-1.73 5.655 1.082 8.736.308 14.523 2.308.53-.055.685-.594.629-.95-1.67-.372-.446-.465-.057-.36l-.067-.551c-1.342-.427.072-.194.072-.194l-.054-.18 12.148.14z" style="fill:#bada8a;fill-opacity:1;fill-rule:evenodd;stroke:#006b37;stroke-width:.842068;stroke-opacity:1"/>
  <text xml:space="preserve" x="22.178" y="19.063" style="font-variant:normal;font-weight:400;font-size:20.0382px;font-family:Caeldera;-inkscape-font-specification:Caeldera;writing-mode:lr-tb;fill:#006b37;fill-opacity:1;fill-rule:nonzero;stroke:none;stroke-width:.787864;stroke-opacity:1" transform="scale(1.06433 .93956)"><tspan x="22.178" y="19.063" style="fill:#006b37;fill-opacity:1;stroke:none;stroke-width:.787864;stroke-opacity:1">Rica</tspan></text>
</svg>
