<svg xmlns="http://www.w3.org/2000/svg" viewBox="0 0 45.455 45.701" height="1em" width="1em">
  <path d="M45.05 27.075C47.397 14.675 39.305 2.73 26.977.398 14.647-1.935 2.752 6.226.405 18.626c-2.347 12.4 5.745 24.344 18.074 26.677 12.328 2.333 24.224-5.828 26.571-18.228" style="fill:#3d0d54;fill-opacity:1;fill-rule:evenodd;stroke:none;stroke-width:.838568"/>
  <path d="M469.505 170.518c-14.189-.207-25.86 11.175-26.069 25.424-.208 14.248 11.126 25.966 25.315 26.174 14.19.207 25.86-11.176 26.07-25.424.207-14.248-11.126-25.966-25.316-26.174" style="fill:#d7c1de;fill-opacity:1;fill-rule:evenodd;stroke:none" transform="matrix(.83857 0 0 -.83857 -370.805 187.367)"/>
  <path d="M469.505 170.518c-14.189-.207-25.86 11.175-26.069 25.424-.208 14.248 11.126 25.966 25.315 26.174 14.19.207 25.86-11.176 26.07-25.424.207-14.248-11.126-25.966-25.316-26.174zm-17.755 7.831c4.58-4.466 10.857-7.178 17.744-7.077v-.003c6.885.1 13.08 2.996 17.53 7.596a25.023 25.023 0 0 1 7.046 17.816h.003a25.026 25.026 0 0 1-7.567 17.603c-4.58 4.466-10.856 7.179-17.744 7.078-6.887-.1-13.082-2.995-17.53-7.593a25.022 25.022 0 0 1-7.046-17.816h-.003a25.026 25.026 0 0 1 7.567-17.604zm17.744-7.08v.003z" style="fill:#fff;fill-opacity:1;fill-rule:evenodd;stroke:none" transform="matrix(.83857 0 0 -.83857 -370.805 187.367)"/>
  <path d="M475.459 171.316c-13.785-3.507-27.814 4.835-31.336 18.635-.103.4-.194.8-.276 1.201 21.689 15.09 34.229-.419 49.931 12.445.092-.312.18-.626.262-.943 3.522-13.8-4.797-27.83-18.582-31.338" style="fill:#632372;fill-opacity:1;fill-rule:evenodd;stroke:none" transform="matrix(.83857 0 0 -.83857 -370.805 187.367)"/>
  <path d="M475.264 172.078c-6.682-1.7-13.424-.528-18.922 2.74a24.96 24.96 0 0 0-11.462 15.326l-.757-.193c-.103.4-.194.8-.276 1.201 21.689 15.09 34.228-.419 49.931 12.445.08-.272.158-.545.23-.82a30.963 30.963 0 0 0-.243-.193l.017.004.226.185.032-.12c3.52-13.793-4.79-27.817-18.563-31.332l-.193.758c6.67 1.703 12.021 5.952 15.28 11.448a24.924 24.924 0 0 1 2.77 18.724c-7.377-5.581-14.056-5.243-21.324-4.874-7.847.398-16.407.832-27.288-6.574l.017-.077c.026-.114.075-.309.144-.581l-.76-.194c3.522-13.8 17.551-22.143 31.335-18.635l.02.005-.195.761-.019-.005zm-30.644 19.204-.006.027zm48.734 10.985c.124.094.249.19.373.287l.02.005-.386-.315-.007.023zm.373.287.02.005-.02-.005zm0 0 .038.03.017.004-.036-.03-.019-.004z" style="fill:#fffbfd;fill-opacity:1;fill-rule:evenodd;stroke:none" transform="matrix(.83857 0 0 -.83857 -370.805 187.367)"/>
  <path d="M219.72 102.582h-2.046v7.527c-.491-.273-1.936-.814-1.936-.814s-.286.446-.824.927c.455.203 1.103.457 1.668.734.868.424 1.464.868 1.82 1.285h1.317z" style="fill:#fdfafb;fill-opacity:1;fill-rule:nonzero;stroke:#fdfafb;stroke-width:.0975;stroke-linecap:butt;stroke-linejoin:miter;stroke-miterlimit:22.9256;stroke-dasharray:none;stroke-opacity:1" transform="matrix(1.7758 0 0 -1.44943 -370.805 187.367)"/>
  <path d="M207.991 112.557c-.742 0-1.279-.429-1.61-1.285-.333-.855-.406-2.004-.215-3.448.108-.82.316-1.434.626-1.84a1.453 1.453 0 0 1 1.22-.612c.763 0 1.316.417 1.66 1.254.342.837.419 1.971.23 3.4-.114.872-.326 1.513-.636 1.919-.308.409-.733.612-1.275.612zm3.535-2.627c.108-.82.109-1.593.002-2.32-.107-.726-.316-1.368-.63-1.923-.297-.529-.681-.925-1.147-1.19-.467-.263-1.015-.397-1.64-.397-.981 0-1.779.335-2.393 1.005-.615.669-1.006 1.628-1.17 2.874a8.408 8.408 0 0 0-.003 2.33c.107.725.317 1.37.629 1.933.3.529.676.922 1.134 1.182.458.26 1.007.391 1.64.391.992 0 1.794-.334 2.408-1.005.615-.669 1.006-1.63 1.17-2.88z" style="fill:#fdfafb;fill-opacity:1;fill-rule:nonzero;stroke:#fdfafb;stroke-width:.2531;stroke-linecap:butt;stroke-linejoin:miter;stroke-miterlimit:22.9256;stroke-dasharray:none;stroke-opacity:1" transform="matrix(1.9195 0 0 -1.42846 -370.805 187.367)"/>
  <path d="M11.7 13.975c0 .618.142 1.108.424 1.466.283.357.673.535 1.169.534.496 0 .889-.179 1.175-.537.286-.358.43-.849.429-1.467 0-.62-.144-1.11-.429-1.467-.285-.357-.677-.535-1.178-.534-.496 0-.886.179-1.168.537-.282.358-.422.848-.422 1.468zm-2.17 7.479L9.52 9.972l2.26-.003.001 1.34c.312-.538.662-.94 1.052-1.204s.823-.396 1.3-.397c.978 0 1.756.38 2.335 1.144.579.766.87 1.802.87 3.11.001 1.273-.285 2.305-.86 3.091-.576.786-1.328 1.18-2.254 1.182-.587 0-1.067-.123-1.436-.37-.37-.244-.699-.65-.989-1.219.024.157.04.35.053.574.012.226.017.506.017.837l.002 3.394-2.342.003zm9.463-3.532-.009-11.547 2.75-.003.005 4.49 3.667-.005-.002-4.49 2.75-.003.009 11.547-2.75.003-.004-4.7-3.667.005.002 4.7-2.75.003z" style="fill:#3d0d54;fill-opacity:1;fill-rule:nonzero;stroke:none;stroke-width:.838568"/>
</svg>
