<svg xmlns="http://www.w3.org/2000/svg" xml:space="preserve" width="512" height="512">
  <path d="M62.894 219.53c2.252-3.562 3.309-8.087 5.344-11.841 4.708-8.684 11.626-16.517 19.654-22.255 7.701-5.503 17.405-9.697 26.84-10.826 8.935-1.068 18.132-.075 27.104-.075h134.728c1.024 0 3.766.482 4.466-.422.452-.585.113-1.544.092-2.21-.076-2.693-1.245-5.346-2.103-7.894-3.334-9.91-7.607-19.793-12.68-28.945-5.171-9.328-10.565-18.516-16.919-27.104-3.453-4.667-7.563-8.875-10.815-13.683-3.245-4.798-5.469-10.253-7.111-15.788-4.828-16.27.274-33.916-2.184-50.523-1.522-10.285-6.446-20.025-16.689-23.996C206.335 1.531 199.525.924 192.886.29 187.77-.2 182.729.132 177.623.066c-14.83-.192-35.439-.818-44.986 12.899-1.782 2.559-3.032 5.45-3.951 8.42-4.23 13.664-1.247 28.396-1.59 42.366-.232 9.473-2.319 19.061-7.067 27.366-2.586 4.524-6.14 8.293-9.332 12.368a205.847 205.847 0 0 0-12.694 18.157c-6.67 10.71-11.878 21.642-16.92 33.156-1.46 3.333-3.616 6.27-4.85 9.736-1.295 3.639-1.543 7.341-2.42 11.052-.86 3.642-2.24 7.188-3.264 10.788-2.16 7.588-4.225 15.185-5.925 22.894-.689 3.122-2.072 7.072-1.73 10.262m144.201-169.2h-57.628c0-8.83 5.748-15.754 13.42-19.536 15.771-7.774 44.206-1.967 44.208 19.537M71.315 241.634h73.153c1.37 0 4.1-.515 5.104.64.872 1.005.422 3.38.422 4.623v11.841c0 15.8.263 31.582.263 47.366 14.146-1.119 25.449-10.41 38.681-14.478 3.192-.982 6.429-1.806 9.737-2.292.969-.142 2.994-.008 3.337-1.163.886-2.987.083-7.366.083-10.487v-23.42c0-2.799-1.284-10.058 1.088-11.968 2.213-1.782 7.845-.604 10.49-.422 7.398.506 15.563.437 22.894-.616 26.425-3.794 44.208-29.575 44.208-55.147H132.363c-7.056 0-14.442-.658-21.314 1.249-23.946 6.644-39.735 29.801-39.735 54.274m282.624-54.27c-1.105.413-1.576 1.748-2.115 2.694-1.31 2.292-2.674 4.553-3.987 6.842-3.381 5.891-7.15 12.732-7.06 19.736.124 9.83 9.076 15.339 18.151 12.08a16.573 16.573 0 0 0 4.21-2.281c9.442-7.034 2.606-20.439-1.841-28.22-1.634-2.86-3.232-5.718-4.668-8.683-.545-1.124-1.082-2.77-2.69-2.169m4.726.064c2.282 13.244 18.915 18.685 15.612 33.419-4.436 19.816-33.124 19.102-39.158.79-2.418-7.336.511-14.612 5.663-20 3.253-3.401 9.915-8.772 7.62-14.209-6.883 1.883-14.446 6.525-18.566 12.368-14.389 20.404 4.605 47.472 28.303 45.215 3.945-.376 7.847-1.241 11.315-3.225 12.184-6.97 17.783-23.715 12.512-36.728-3.807-9.397-13.257-16.333-23.3-17.63m-76.575 66.312c-.908-5.509 5.06-9.394 4.124-15-1.892-11.338-18.423-5.595-22.93.264-6.624 8.61.636 21.638 1.12 31.05.466 9.066-6.5 16.889-8.153 25.525-1.175 6.144 1.384 11.797 7.683 13.57 1.794.505 3.944.56 5.789.298 7.289-1.043 14.24-7.537 14.438-15.184.071-2.728-1.313-5.615-2.158-8.157-.928-2.787-.715-5.1.087-7.894.213-.742.406-2.324 1.442-2.31 3.518.047 6.458 5.257 7.316 8.099 2.023 6.71-.75 20.856 9.136 22.056 1.131.137 2.308.05 3.42-.163 1.548-.297 3.061-.731 4.474-1.44 1.671-.836 3.187-1.941 4.423-3.349 9.56-10.865-6.286-21.525-11.615-29.472-2.113-3.15-3.823-7.552-2.3-11.315 3.032-7.484 14.055-6.573 19.15-11.887 6.46-6.738 2.773-19.918-7.816-17.196-7.294 1.876-13.567 8.333-18.343 13.82-2.606 2.995-5.271 7.495-9.287 8.685m109.204-1.656c-4.86.124-7.537 4.54-8.642 8.76-1.515 5.787 1.258 11.794 1 17.63-.402 9.13-9.702 20.031-1.544 28.41 5.368 5.51 16.38 1.31 19.096-4.99 1.37-3.176.07-6.483-.15-9.736-.116-1.697.429-6.034 3.134-5.302 2.284.618 2.955 3.852 3.265 5.828.727 4.63-4.031 15.084 3.05 16.762.85.2 1.758.335 2.631.335 7.558 0 13.236-4.876 13.158-12.623-.04-3.824-2.808-9.731 2.105-11.715 3.694-1.49 6.307 3.718 6.307 6.715.003 4.063-2.126 7.95-1.168 12.105 1.379 5.973 11.341 4.844 15.386 2.542 5.06-2.88 7.96-9.77 6.604-15.436-.926-3.874-3.4-7.313-3.847-11.315-.24-2.132.935-4.216 1.145-6.316.713-7.123-1.355-13.704-7.586-17.71-4.521-2.904-10.523-3.423-15.526-1.48-2.005.778-3.628 2.718-5.789 3.05-2.994.454-5.394-2.722-8.42-2.803-2.679-.069-5.34.018-7.894.931-1.703.608-3.384 2.037-5.263 2.013-2.003-.026-2.9-2.247-4.221-3.386-1.797-1.553-4.481-2.326-6.831-2.269m-34.998 49.284c.555 2.868 1.142 6.06 3.431 8.102 3.353 2.987 10.258 2.61 12.265-1.787 2.508-5.5-.844-11.738-.955-17.367-.045-2.19.516-4.457 1.016-6.578 1.424-6 3.134-12.465 2.323-18.683-.742-5.705-4.947-8.424-10.449-7.25-4.602.982-6.165 4.602-6.863 8.828-.944 5.71-.747 11.75-3.218 17.105-1.52 3.294-5.305 8.68-9.654 7.112-2.582-.931-4.626-4.136-4.703-6.85-.07-2.539 1.471-5.054 2.321-7.367 1.5-4.09 2.787-8.768 1.997-13.157-1.179-6.531-8.433-8.476-13.288-4.35-3.753 3.19-4.926 8.873-4.1 13.56.445 2.515 1.69 5.031 1.381 7.63-.652 5.543-3.88 10.66-3.75 16.316.29 12.772 14.895 14.228 24.352 10.149 2.992-1.29 4.963-4.17 7.894-5.413M104.47 275.842c-.144-3.157-1.192-7.336-3.684-9.328-1.031-.824-2.307-1.974-3.645-1.003-1.369.995-.603 2.85.086 4.016 1.565 2.647 4.23 5.429 7.243 6.315M125.785 299c-.386-2.99-1.49-5.905-1.49-8.947 0-2.85 1.008-5.597 1.203-8.42.328-4.763-1.342-9.868-5.502-12.602-2.482-1.632-7.219-2.25-9.37.26-1.835 2.145-.902 5.46-.214 7.868 1.81 6.347 5.483 11.939 9.834 16.841 1.56 1.758 3.16 4.381 5.539 5m-7.105 1.052.263-.79c-4.465-3.173-7.811-8.32-12.63-10.846-1.575-.823-4.283-1.936-6.003-.91-2.812 1.673-.143 5.547 1.53 6.841 5.084 3.94 10.901 4.292 16.84 5.705m119.729-.79v-3.683c-6.058-.782-12.034-2.09-18.157-2.358-12.143-.531-23.958 1.66-35.524 5.26-13.258 4.124-24.162 13.434-38.681 13.676-6.499.11-13.011.179-19.473-.905-3.664-.613-7.338-2.521-11.047-2.687-1.366-.06-2.17 2.11-1.553 3.226 1.017 1.832 5.997 2.266 7.864 2.579 7.861 1.323 15.719 1.829 23.682 1.734 16.785-.2 30.8-10.957 46.576-15.223 9.153-2.476 19.202-3.865 28.683-3.45 5.864.258 11.8 1.785 17.63 1.832m-108.677 22.367c0 .96-.384 2.992.422 3.687 1.172 1.01 3.917.689 5.367.863 5.668.67 11.516-.085 17.104-1.063 9.81-1.719 17.744-6.571 26.84-10.21 9.4-3.76 19.43-6 29.472-7.005 3.976-.397 7.851-.987 11.841-.482l-.263-4.473c-7.186 0-13.973.81-21.05 1.997-3.02.505-6.309.713-9.21 1.708-7.94 2.718-15.646 6.447-23.42 9.61-2.743 1.118-5.546 2.67-8.42 3.392-6.067 1.518-13.486 2.72-19.737 2.765-2.984.021-5.967-.66-8.946-.79m20.262 10.527v3.684c8.662 0 16.069-4.355 23.682-7.953 5.88-2.776 12.117-4.905 18.42-6.486 2.666-.671 7.122-.75 9.413-2.187.967-.605 1.38-3.392.391-4.152-.764-.587-2.638.079-3.488.253-3.183.65-6.327 1.473-9.474 2.27-13.59 3.442-24.86 12.79-38.944 14.57m132.886-14.888c-4.324.568-8.208 1.445-12.105 3.516-2.87 1.526-5.478 3.647-7.597 6.11-4.792 5.581-6.27 14.086-1.676 20.262 2.85 3.83 7.11 6.304 11.115 8.736 3.263 1.981 10.981 5.873 10.792 10.457-.074 1.816-2.816.54-3.687.166-4.765-2.04-8.213-4.702-13.42-1.908-7.902 4.245-9.988 17.473-3.158 23.551 3.981 3.54 9.728 3.64 14.736 3.16 3.118-.297 6.381-1.026 9.21-2.391 3.105-1.498 5.823-3.34 8.078-5.984 6.926-8.123 3.69-19.988-2.197-27.63-2.679-3.476-6.01-6.757-9.302-9.66-1.579-1.392-4.229-3.29-4.392-5.602-.086-1.234 1.548-4.545 3.076-4.158 1.045.266 2.006 1.56 2.895 2.158 1.892 1.27 4.07 1.71 6.315 1.358 7.276-1.145 11.252-9.14 7.079-15.41-3.237-4.857-10.036-7.48-15.762-6.731m105.52 2.905c-10.382 1.874-9.729 14.128-9.187 21.983.163 2.36.853 6.85-.837 8.85-.613.723-1.479.039-2.081-.34-1.729-1.09-3.534-2.31-5.526-2.855-4.445-1.216-8.873 1.416-11.515 4.87-5.27 6.89-6.723 17.139-5.347 25.525.894 5.45 2.492 9.77 7.915 12.136 3.95 1.727 8.931 2.487 13.157 1.413 1.953-.497 3.742-2.431 5.79-2.392 1.368.027 2.699.98 3.946 1.458 2.482.948 5.253 1.537 7.895.934 4.836-1.105 5.091-6.194 3.81-10.128-2.5-7.67-5.942-13.71-5.366-22.104.669-9.741 6.592-18.414 6.816-28.156.12-5.373-3.063-12.35-9.47-11.194m-238.406 26.456c7.59-.063 14.65-3.813 21.314-7.036 4.423-2.14 9.028-3.868 13.683-5.418 3.365-1.124 6.8-2.179 10.263-2.958 1.865-.42 4.294-.568 6.013-1.397 1.014-.487 1.364-3.531.407-4.224-.585-.423-1.808-.06-2.473 0-2.589.243-5.135.816-7.631 1.524-10.26 2.908-19.406 8.402-29.209 12.441-2.685 1.106-5.57 1.898-8.42 2.434-1.086.206-2.997.116-3.752 1.035-.788.955-.399 2.505-.195 3.6m0 10.525c9.355 0 17.575-5.358 25.787-9.128 8.06-3.7 17.502-6.595 26.314-7.713l-.263-4.473c-14.044.292-26.107 9.746-38.945 14.012-3.024 1.005-6.139 1.863-9.21 2.718-.969.268-2.815.334-3.413 1.245-.553.842-.27 2.376-.27 3.339m170.778 4.473c2.04 1.258 3.966 2.498 6.315 3.116 8.363 2.208 23.591-1.279 22.291-12.589-1.605-13.999-18.343-14.97-28.87-11.13-10.548 3.844-15.311 13.885-15.777 24.55-.366 8.345 2.134 19.041 9.726 23.565 10.96 6.528 33.76 3.768 36.455-11.197.25-1.395.145-2.892-.387-4.21a8.691 8.691 0 0 0-1.676-2.608c-6.036-6.5-12.773 3.35-18.867 3.897-6.913.619-11.323-7.639-9.21-13.394m96.836 0c2.223 1.053 4.134 2.405 6.578 2.987 9.568 2.274 24.525-1.384 22.246-14.039-1.752-9.715-13.399-12.51-21.72-11.349-13.035 1.816-22.295 11.128-22.882 24.506-.368 8.405.842 19.241 8.41 24.378 8.765 5.95 22.633 6.142 31.05-.487 2.83-2.226 5.763-5.486 6.455-9.155.874-4.634-2.35-9.973-7.507-9.428-4.779.508-8.086 4.826-12.63 5.868-4.437 1.018-9.842-3.847-10.69-8.018-.352-1.734.224-3.605.69-5.263m-215.513-14.999c-14.691.303-27.048 9.158-40.26 14.1-2.32.865-4.67 1.778-7.105 2.265-1.23.247-3.062.103-4.137.787-1.027.652-1.278 3.158-.201 3.89.785.53 2.42-.006 3.286-.146 3.195-.513 6.241-1.584 9.21-2.85 8.377-3.576 16.315-7.812 24.998-10.678 2.822-.931 5.758-1.729 8.684-2.257 1.44-.258 3.624-.166 4.916-.832 1.103-.571.61-3.237.61-4.279m129.991 1.403c5.358-.932 6.879 6.51 1.316 7.418-4.863.792-6.434-6.526-1.316-7.418m97.1 0c5.512-.96 6.625 6.513 1.052 7.418-4.953.805-6.084-6.542-1.053-7.418M150.52 378.467l13.946-3.802 24.472-10.107 9.21-2.405 3.677-.948.27-3.789c-14.267.613-26.807 8.76-39.734 13.665-3.952 1.503-13.58 1.503-11.841 7.386m221.038-16.951c5.681 0 5.981 8.8 0 8.791-5.884-.008-5.965-8.791 0-8.791M150.52 388.993c3.622-.747 7.585-1.403 11.052-2.692 13.336-4.958 26.266-13.225 40.787-14.412l-.527-4.21c-7.316.984-14.767 2.734-21.577 5.639-5.992 2.555-11.598 5.95-17.63 8.412-2.828 1.153-5.68 2.066-8.684 2.63-.905.168-3.08.08-3.677.844-.663.847-.023 2.873.256 3.789m-.526 10.262c7.627-.005 14.654-3.583 21.314-6.907 4.312-2.15 8.918-3.805 13.42-5.51 3.99-1.51 8.22-2.447 12.368-3.4 1.447-.334 3.377-.208 4.697-.895.985-.513.958-3.11.295-3.912-.556-.677-1.925-.145-2.624-.005-2.373.473-4.74.965-7.105 1.476-10.8 2.334-19.684 7.986-29.735 12.202-2.797 1.17-5.689 2.155-8.683 2.676-.893.155-3.09.01-3.677.75-.614.776-.27 2.589-.27 3.526m0 6.841v3.684c8.858 0 16.716-4.6 24.472-8.352 4.834-2.339 10.059-4.178 15.262-5.497 2.72-.687 5.412-1.442 8.157-2.029 1.1-.234 2.732-.165 3.549-1.047.953-1.026.661-2.842.661-4.126-3.446.029-6.937 1.176-10.262 2.008-14.623 3.655-26.99 12.594-41.84 15.36m49.997-6.58c-2.976.061-5.85 1.188-8.683 1.996-3.226.918-6.648 1.65-9.737 2.97-7.076 3.03-13.9 7.3-21.314 9.431-2.759.792-7.294 1.221-9.652 2.79-.8.534-.995 2.984-.189 3.592.671.505 2.233.044 3-.066 3.065-.434 6.104-1.427 8.946-2.63 9.531-4.033 18.41-8.63 28.42-11.504 4.493-1.289 8.961-.889 9.21-6.578M50 423.728c1.139 7.602 8.379 15.275 13 21.051 16.479 20.601 39.49 33.808 65.153 39.263 29.164 6.2 59.809 2.195 88.415-4.957 48.79-12.197 95.313-35.003 145.78-40.05 20.13-2.013 40.927-1.571 60.523 4.015 7.162 2.042 14.244 4.45 21.051 7.481 4.02 1.792 8.144 4.908 12.63 5.3-.807-2.802-2.87-5.365-4.646-7.631-4.255-5.429-9.379-10.036-14.563-14.546-21.527-18.723-49.688-31.712-78.679-30.44-37.258 1.63-74.187 12.754-109.466 24.024-24.024 7.676-47.762 16.404-72.627 21.065-15.134 2.836-30.4 3.955-45.787 3.578-17.858-.44-37.013-4.36-53.154-12.17-6.31-3.052-11.963-7.139-17.894-10.83-3.017-1.882-6.293-4.161-9.736-5.153m145.254-12.63c-12.791.265-23.685 10.109-35.524 13.572-2.71.792-6.456 1.04-8.918 2.329-1.15.602-1.408 2.468-.572 3.463.667.794 2.095.147 2.911-.058 2.719-.68 5.446-1.332 8.158-2.04 7.855-2.047 14.923-6.978 22.63-9.549 4.967-1.655 9.677-2.031 11.315-7.718m-45.26 28.42c10.239 0 18.758-3.003 27.63-8.048 2.898-1.647 7.585-3.965 8.42-7.478-4.882.947-9.056 3.468-13.42 5.72-4.475 2.311-9.204 4.25-13.947 5.94-2.456.873-8.58.715-8.683 3.865m-45.26 47.366c1.558 1.831 4.26 2.889 6.315 4.105 5.299 3.142 10.774 5.92 16.314 8.594 30.408 14.673 64.557 14.596 97.1 8.726 43.747-7.89 84.87-25.899 127.886-36.653 20.883-5.221 42.59-9.392 64.206-8.444 22.594.989 42.832 8.899 63.944 16.04-1.016-2.157-3.805-3.815-5.79-5.05-5.054-3.138-10.607-5.58-16.051-7.954-17.167-7.491-34.29-11.007-52.891-12.28-6.437-.44-13.315-.658-19.736.1-7.273.857-14.573 1.291-21.84 2.362-13.337 1.966-26.544 5.21-39.472 8.987-45.784 13.378-90.29 33.41-138.412 36.705-18.55 1.271-37.613-.51-55.523-5.615-8.73-2.487-17.072-8.297-26.05-9.623z" style="fill:#0d91d8;stroke:none;stroke-width:.263142"/>
</svg>
