<?xml version="1.0" encoding="UTF-8" standalone="no"?>
<!-- Created with Inkscape (http://www.inkscape.org/) -->

<svg
   width="512"
   height="512"
   viewBox="0 0 512 512"
   version="1.1"
   id="svg5"
   xml:space="preserve"
   inkscape:version="1.2.2 (732a01da63, 2022-12-09)"
   sodipodi:docname="desenho.svg"
   xmlns:inkscape="http://www.inkscape.org/namespaces/inkscape"
   xmlns:sodipodi="http://sodipodi.sourceforge.net/DTD/sodipodi-0.dtd"
   xmlns="http://www.w3.org/2000/svg"
   xmlns:svg="http://www.w3.org/2000/svg"><sodipodi:namedview
     id="namedview7"
     pagecolor="#ffffff"
     bordercolor="#000000"
     borderopacity="0.25"
     inkscape:showpageshadow="2"
     inkscape:pageopacity="0.0"
     inkscape:pagecheckerboard="0"
     inkscape:deskcolor="#d1d1d1"
     inkscape:document-units="px"
     showgrid="false"
     inkscape:zoom="0.78030338"
     inkscape:cx="206.33"
     inkscape:cy="263.99988"
     inkscape:window-width="1366"
     inkscape:window-height="745"
     inkscape:window-x="-8"
     inkscape:window-y="-8"
     inkscape:window-maximized="1"
     inkscape:current-layer="layer1" /><defs
     id="defs2"><clipPath
       clipPathUnits="userSpaceOnUse"
       id="clipPath2541"><g
         inkscape:label="Clip"
         id="use2543" /></clipPath></defs><g
     inkscape:label="Camada 1"
     inkscape:groupmode="layer"
     id="layer1"><path
       style="fill:#0d91d8;stroke:none;stroke-width:0.263142"
       d="m 62.89392,219.53022 c 2.25195,-3.56188 3.30899,-8.08764 5.34412,-11.84135 4.7076,-8.68365 11.62556,-16.51682 19.65426,-22.25462 7.70082,-5.50307 17.40465,-9.69752 26.84038,-10.82587 8.93415,-1.06861 18.13171,-0.0753 27.1035,-0.0753 h 70.25864 51.83876 12.63077 c 1.02364,0 3.76555,0.48209 4.46552,-0.4218 0.45259,-0.58575 0.11313,-1.54411 0.0921,-2.20959 -0.0763,-2.69327 -1.24465,-5.34704 -2.1025,-7.89423 -3.33398,-9.91121 -7.6074,-19.7932 -12.68075,-28.94553 -5.17072,-9.32779 -10.56485,-18.51564 -16.91867,-27.1035 -3.45293,-4.66707 -7.56346,-8.87521 -10.81509,-13.68334 -3.24477,-4.79836 -5.46858,-10.25328 -7.11112,-15.78845 -4.82784,-16.268923 0.27447,-33.91568 -2.18406,-50.523031 -1.52228,-10.284337 -6.44616,-20.0241326 -16.68865,-23.9955586 -6.28645,-2.437477 -13.09601,-3.04440999 -19.73557,-3.67892299 -5.11467,-0.488757 -10.15699,-0.157332 -15.26219,-0.223353 -14.83061,-0.191726 -35.43929,-0.817896 -44.98684,12.89880059 -1.78121,2.559309 -3.03138,5.450701 -3.95079,8.420509 -4.22921,13.663593 -1.24704,28.395539 -1.58938,42.365692 -0.23209,9.473603 -2.31905,19.06167 -7.06743,27.366654 -2.58615,4.52339 -6.1391,8.2921 -9.33231,12.36764 -4.56102,5.82145 -8.78258,11.87766 -12.69313,18.15673 -6.67009,10.70956 -11.8787,21.64228 -16.92022,33.15574 -1.45965,3.33348 -3.6166,6.26987 -4.85022,9.73622 -1.29517,3.63897 -1.54305,7.34136 -2.41958,11.05192 -0.86047,3.64188 -2.23959,7.18849 -3.26451,10.78877 -2.15986,7.58715 -4.22447,15.18455 -5.92462,22.89327 -0.68892,3.12271 -2.07223,7.07244 -1.73041,10.2625 M 207.09516,50.33059 h -57.62787 c 0,-8.831538 5.74779,-15.754777 13.42019,-19.536638 15.77082,-7.773709 44.20531,-1.967242 44.20768,19.536638 M 71.31442,241.63406 h 58.68042 14.47276 c 1.36965,0 4.09999,-0.51495 5.10414,0.64049 0.87258,1.00416 0.42182,3.37901 0.42182,4.62235 v 11.84135 c 0,15.79897 0.26315,31.58217 0.26315,47.36535 14.14671,-1.11834 25.44887,-10.40985 38.68172,-14.47802 3.19189,-0.9815 6.42852,-1.80514 9.7362,-2.29194 0.9689,-0.1421 2.99456,-0.008 3.33717,-1.16309 0.88625,-2.98666 0.0837,-7.36532 0.0837,-10.48618 v -23.41953 c 0,-2.79982 -1.28491,-10.05856 1.08755,-11.96925 2.21275,-1.78197 7.84449,-0.60312 10.49064,-0.4218 7.39768,0.50654 15.56189,0.43707 22.89326,-0.6155 26.42463,-3.79421 44.20769,-29.57494 44.20769,-55.14696 H 166.83459 132.36311 c -7.05638,0 -14.4417,-0.65813 -21.31442,1.24859 -23.94609,6.64406 -39.73427,29.80124 -39.73427,54.27414 m 282.62391,-54.27071 c -1.10519,0.41391 -1.57621,1.74882 -2.11565,2.69509 -1.31045,2.2917 -2.67351,4.55261 -3.98659,6.84166 -3.38137,5.89095 -7.14953,12.73181 -7.06008,19.73557 0.12369,9.82963 9.07575,15.33901 18.15147,12.08081 1.48148,-0.53234 2.94981,-1.34177 4.21024,-2.2817 9.4415,-7.03349 2.6051,-20.43843 -1.84197,-28.21898 -1.6341,-2.86008 -3.23138,-5.71831 -4.66813,-8.68366 -0.5447,-1.12438 -1.0815,-2.77008 -2.68929,-2.16879 m 4.72601,0.0637 c 2.28143,13.24363 18.91457,18.68485 15.61214,33.41891 -4.43656,19.81555 -33.12416,19.10166 -39.15799,0.78942 -2.41828,-7.33559 0.51048,-14.61143 5.6628,-19.99872 3.25242,-3.4019 9.91515,-8.77234 7.62055,-14.20961 -6.88377,1.88304 -14.44644,6.52485 -18.56723,12.36761 -14.38854,20.40476 4.60497,47.47275 28.30345,45.21554 3.94448,-0.37576 7.84687,-1.24124 11.31505,-3.22534 12.18343,-6.96955 17.78308,-23.7153 12.51235,-36.72736 -3.80763,-9.39783 -13.25703,-16.3337 -23.30112,-17.63045 m -76.57403,66.31153 c -0.90784,-5.50859 5.0602,-9.39334 4.12343,-14.99905 -1.89198,-11.33821 -18.42249,-5.5957 -22.9301,0.26315 -6.62353,8.60998 0.6368,21.6381 1.12098,31.05063 0.46576,9.06522 -6.50144,16.8884 -8.15343,25.52469 -1.17545,6.14432 1.38359,11.79659 7.68239,13.57018 1.79463,0.50523 3.9445,0.56049 5.78911,0.29734 7.28902,-1.04204 14.24119,-7.53635 14.43855,-15.18325 0.071,-2.72876 -1.31308,-5.61541 -2.15777,-8.15735 -0.92887,-2.78666 -0.71573,-5.09967 0.0868,-7.89423 0.21315,-0.74206 0.40525,-2.32354 1.44203,-2.31039 3.51819,0.0474 6.45748,5.25755 7.31531,8.09948 2.02356,6.71009 -0.74995,20.85655 9.13626,22.05647 1.13149,0.13684 2.30773,0.05 3.42082,-0.16314 1.54727,-0.29734 3.06035,-0.73152 4.47341,-1.43939 1.67094,-0.83678 3.18663,-1.94198 4.42339,-3.34976 9.55991,-10.8651 -6.28643,-21.52495 -11.61503,-29.4718 -2.11304,-3.1498 -3.82345,-7.55214 -2.29986,-11.31505 3.03138,-7.48373 14.05437,-6.57327 19.14876,-11.88713 6.46012,-6.73749 2.77351,-19.91769 -7.81529,-17.19576 -7.29426,1.87542 -13.56754,8.33236 -18.34355,13.82071 -2.60509,2.99401 -5.2707,7.49426 -9.28625,8.68365 m 109.20351,-1.65517 c -4.86023,0.12367 -7.53637,4.53918 -8.64156,8.75996 -1.51569,5.78647 1.25782,11.79398 0.99995,17.63043 -0.40261,9.12836 -9.70201,20.03029 -1.54465,28.40871 5.36807,5.51017 16.38052,1.31044 19.09614,-4.98915 1.37098,-3.17612 0.071,-6.4838 -0.14999,-9.73623 -0.11578,-1.69725 0.42892,-6.03383 3.134,-5.30228 2.28408,0.61837 2.95509,3.85239 3.2656,5.82856 0.72627,4.62866 -4.03134,15.08325 3.04979,16.76209 0.84996,0.19999 1.7578,0.33419 2.63142,0.33419 7.55741,0 13.23598,-4.87602 13.15704,-12.62287 -0.0395,-3.82345 -2.80771,-9.73097 2.10514,-11.71503 3.6945,-1.4894 6.30749,3.71818 6.30749,6.71534 0.003,4.06289 -2.12619,7.94949 -1.16835,12.1045 1.37885,5.97329 11.34137,4.84441 15.38586,2.54194 5.0602,-2.87878 7.95999,-9.77044 6.60483,-15.43586 -0.92627,-3.87343 -3.39978,-7.31269 -3.84713,-11.31507 -0.23945,-2.13144 0.93415,-4.21552 1.14466,-6.31538 0.71312,-7.12321 -1.35517,-13.70436 -7.58635,-17.70937 -4.52076,-2.90508 -10.52301,-3.42346 -15.52531,-1.48148 -2.00514,0.77889 -3.62871,2.71823 -5.78911,3.04979 -2.99453,0.45525 -5.39438,-2.72087 -8.42051,-2.80245 -2.67878,-0.0684 -5.33913,0.0185 -7.89423,0.93152 -1.70251,0.60785 -3.38398,2.03671 -5.26281,2.01303 -2.00252,-0.0263 -2.89982,-2.24722 -4.22079,-3.38663 -1.79725,-1.55252 -4.48129,-2.32616 -6.83113,-2.26826 m -34.99775,49.28365 c 0.55523,2.86824 1.14205,6.06015 3.43137,8.10212 3.35241,2.98666 10.25722,2.61035 12.26499,-1.78674 2.50773,-5.49963 -0.84468,-11.73872 -0.9552,-17.3673 -0.0448,-2.18932 0.51574,-4.4576 1.01572,-6.57851 1.4236,-5.99961 3.13401,-12.46499 2.32354,-18.68302 -0.74206,-5.70489 -4.94707,-8.42312 -10.44934,-7.24952 -4.60231,0.98152 -6.16537,4.60233 -6.8627,8.82836 -0.94467,5.71017 -0.74732,11.74925 -3.21821,17.10418 -1.52097,3.29451 -5.30492,8.68101 -9.65464,7.1127 -2.58142,-0.93152 -4.62602,-4.13657 -4.70235,-6.84957 -0.0711,-2.53931 1.47097,-5.05493 2.3209,-7.36793 1.49991,-4.08921 2.78667,-8.76788 1.99724,-13.15707 -1.17885,-6.53114 -8.43365,-8.47576 -13.2886,-4.34969 -3.7524,3.18926 -4.926,8.87308 -4.09974,13.55964 0.44471,2.51562 1.68936,5.03124 1.38149,7.63108 -0.65258,5.54175 -3.88132,10.65985 -3.74976,16.31473 0.28945,12.77287 14.89377,14.22804 24.35106,10.14937 2.99191,-1.2894 4.96285,-4.1708 7.89423,-5.41283 M 104.47018,275.8424 c -0.14422,-3.15769 -1.19203,-7.33638 -3.68423,-9.32836 -1.03099,-0.82362 -2.30645,-1.97356 -3.64477,-1.00257 -1.36913,0.99467 -0.60312,2.84982 0.0861,4.01555 1.56488,2.64718 4.22997,5.42859 7.24295,6.31538 m 21.31442,23.15639 c -0.38603,-2.98927 -1.48939,-5.90488 -1.48939,-8.94677 0,-2.84982 1.00809,-5.59701 1.20256,-8.42053 0.32813,-4.76284 -1.34175,-9.86779 -5.50228,-12.60181 -2.48167,-1.63149 -7.21821,-2.24985 -9.36939,0.26051 -1.83489,2.14459 -0.90206,5.46017 -0.21447,7.86791 1.81093,6.34696 5.48308,11.93871 9.83384,16.84103 1.56044,1.75777 3.16006,4.3813 5.53913,4.99966 m -7.10481,1.05257 0.26313,-0.78942 c -4.46471,-3.17348 -7.81107,-8.32052 -12.63077,-10.84667 -1.57462,-0.82364 -4.28207,-1.93673 -6.0025,-0.91048 -2.81192,1.67358 -0.14261,5.54703 1.52939,6.84169 5.08519,3.93922 10.90193,4.29182 16.84075,5.70488 m 119.72914,-0.78942 v -3.68396 c -6.05803,-0.78153 -12.03397,-2.08936 -18.15673,-2.35776 -12.14369,-0.53153 -23.95792,1.66042 -35.52403,5.26019 -13.25784,4.12343 -24.16187,13.43334 -38.68172,13.67545 -6.49826,0.11052 -13.01075,0.17892 -19.47243,-0.90523 -3.66398,-0.61311 -7.33822,-2.52087 -11.04693,-2.68665 -1.36571,-0.0605 -2.17065,2.11038 -1.55305,3.2261 1.01678,1.83146 5.99698,2.26565 7.86345,2.57878 7.86186,1.32361 15.71923,1.82884 23.68268,1.73411 16.78496,-0.19999 30.80037,-10.95719 46.57596,-15.22271 9.15308,-2.47615 19.20138,-3.86553 28.68234,-3.44978 5.86435,0.25787 11.80057,1.7841 17.63046,1.83146 m -108.67726,22.36699 c 0,0.96046 -0.38394,2.99191 0.42179,3.68661 1.17284,1.01046 3.91712,0.68941 5.36729,0.86308 5.66781,0.67101 11.51637,-0.0842 17.10418,-1.06308 9.8104,-1.7183 17.74359,-6.57064 26.84038,-10.20988 9.3999,-3.76027 19.429,-5.99961 29.47177,-7.00479 3.97553,-0.39735 7.85135,-0.98678 11.84134,-0.48155 l -0.26312,-4.47341 c -7.18612,0 -13.97333,0.81049 -21.05129,1.99724 -3.019,0.50523 -6.30774,0.71312 -9.20993,1.70779 -7.93871,2.71825 -15.6453,6.44694 -23.41954,9.60992 -2.74272,1.11834 -5.54545,2.67086 -8.42053,3.39187 -6.06644,1.51834 -13.48516,2.72087 -19.73557,2.76562 -2.98453,0.021 -5.96725,-0.6605 -8.94677,-0.78942 m 20.26184,10.52562 v 3.68399 c 8.66234,0 16.06922,-4.355 23.68269,-7.95212 5.87883,-2.77613 12.11685,-4.90496 18.41988,-6.48642 2.66561,-0.67101 7.12163,-0.74995 9.41307,-2.1867 0.96705,-0.60524 1.37885,-3.39191 0.39102,-4.15237 -0.76417,-0.58681 -2.63798,0.0789 -3.48871,0.25262 -3.18217,0.64994 -6.32671,1.47358 -9.47308,2.2709 -13.59045,3.44188 -24.85971,12.78865 -38.94487,14.5701 m 132.88617,-14.88851 c -4.32339,0.56838 -8.20735,1.44464 -12.10446,3.51557 -2.87089,1.52622 -5.4786,3.64713 -7.59689,6.11013 -4.79286,5.58122 -6.27012,14.08595 -1.67622,20.26185 2.84982,3.83134 7.11009,6.30487 11.11508,8.7363 3.26295,1.98145 10.98087,5.8733 10.79141,10.45721 -0.0737,1.81567 -2.8156,0.53945 -3.68661,0.16578 -4.76547,-2.03935 -8.21261,-4.70232 -13.42019,-1.90777 -7.90212,4.24446 -9.9875,17.47255 -3.15769,23.5511 3.98133,3.53926 9.72833,3.63924 14.73591,3.16034 3.11822,-0.29735 6.38115,-1.02625 9.20993,-2.39196 3.10507,-1.49726 5.8233,-3.33925 8.07843,-5.98382 6.92586,-8.12316 3.68922,-19.98819 -2.19723,-27.6298 -2.67878,-3.4761 -6.01015,-6.75746 -9.30204,-9.6599 -1.57885,-1.39202 -4.22867,-3.28928 -4.39181,-5.60229 -0.0868,-1.23411 1.54727,-4.54443 3.07611,-4.15762 1.04468,0.26577 2.00513,1.56042 2.89454,2.15777 1.892,1.27097 4.07081,1.71041 6.31539,1.3578 7.27586,-1.14466 11.25191,-9.1389 7.0785,-15.40953 -3.23663,-4.85759 -10.0362,-7.48111 -15.76216,-6.73116 m 105.51953,2.90507 c -10.38091,1.87358 -9.72831,14.12806 -9.18625,21.98282 0.16314,2.36037 0.85258,6.84955 -0.83678,8.84943 -0.61311,0.72363 -1.47887,0.0395 -2.08144,-0.33945 -1.72884,-1.08941 -3.534,-2.3104 -5.52596,-2.8551 -4.44445,-1.21571 -8.87312,1.41571 -11.51504,4.87074 -5.27073,6.88905 -6.72327,17.13837 -5.34704,25.52468 0.89469,5.44966 2.49194,9.77042 7.91528,12.13607 3.94975,1.7262 8.93101,2.48668 13.15704,1.41307 1.95251,-0.49734 3.74186,-2.43143 5.78911,-2.39195 1.36834,0.0263 2.69982,0.97888 3.94711,1.45779 2.48143,0.94731 5.2523,1.53673 7.89423,0.93416 4.83652,-1.10519 5.09178,-6.19436 3.81027,-10.1283 -2.49983,-7.67057 -5.94171,-13.70966 -5.36543,-22.10384 0.66837,-9.74148 6.59168,-18.41462 6.81536,-28.1561 0.12102,-5.37333 -3.06296,-12.34919 -9.47046,-11.19402 m -238.4057,26.4562 c 7.5903,-0.0632 14.6509,-3.81291 21.31442,-7.03639 4.42287,-2.13934 9.02784,-3.86818 13.68334,-5.41806 3.36504,-1.12362 6.80033,-2.17881 10.2625,-2.95772 1.8654,-0.42101 4.29419,-0.56838 6.01328,-1.39728 1.01362,-0.4868 1.36412,-3.53133 0.40655,-4.22341 -0.58417,-0.42365 -1.80802,-0.0605 -2.47272,0 -2.58879,0.24211 -5.13519,0.81574 -7.6311,1.52359 -10.26013,2.90771 -19.40584,8.40209 -29.20865,12.4413 -2.68483,1.10519 -5.56963,1.89725 -8.4205,2.43406 -1.08546,0.20525 -2.99692,0.11578 -3.75186,1.03415 -0.78733,0.9552 -0.39841,2.50511 -0.19526,3.59976 m 0,10.52565 c 9.35572,0 17.57571,-5.35756 25.78781,-9.12837 8.05897,-3.69975 17.50205,-6.59432 26.3141,-7.71266 l -0.26315,-4.47339 c -14.04383,0.29209 -26.10752,9.74674 -38.94484,14.01226 -3.02428,1.00518 -6.1391,1.86304 -9.20995,2.71823 -0.96914,0.2684 -2.81533,0.3342 -3.41347,1.24467 -0.55284,0.84205 -0.2705,2.37617 -0.2705,3.33926 m 170.77847,4.47339 c 2.03935,1.25782 3.96555,2.49722 6.31539,3.11558 8.36263,2.20777 23.59059,-1.27886 22.29068,-12.58865 -1.60516,-13.99911 -18.34357,-14.9701 -28.86919,-11.13087 -10.54933,3.84449 -15.31219,13.88595 -15.77795,24.55105 -0.36575,8.3442 2.13408,19.04088 9.72569,23.56428 10.95983,6.52853 33.761,3.76818 36.45555,-11.19666 0.25,-1.39464 0.14474,-2.8919 -0.38682,-4.21024 -0.38417,-0.95258 -0.97888,-1.85514 -1.67619,-2.60773 -6.03647,-6.49959 -12.77286,3.34979 -18.86721,3.89711 -6.91273,0.61839 -11.32296,-7.63898 -9.20995,-13.39387 m 96.83587,0 c 2.22356,1.05257 4.13396,2.4051 6.57854,2.98666 9.5678,2.27354 24.52473,-1.38413 22.24593,-14.03858 -1.75252,-9.71516 -13.39914,-12.50971 -21.71966,-11.34926 -13.03599,1.81567 -22.29592,11.12822 -22.88273,24.5063 -0.36839,8.40474 0.84204,19.24088 8.40999,24.37738 8.76521,5.94963 22.63276,6.14171 31.05062,-0.4868 2.82877,-2.22618 5.76279,-5.48649 6.45486,-9.15467 0.87362,-4.63391 -2.34986,-9.97305 -7.50741,-9.42835 -4.77865,0.50787 -8.08633,4.82601 -12.63076,5.86805 -4.43656,1.01836 -9.84149,-3.84713 -10.68879,-8.01792 -0.35262,-1.73409 0.22365,-3.60502 0.68941,-5.26281 M 202.09547,346.62731 c -14.69167,0.30263 -27.04799,9.15731 -40.26056,14.0991 -2.3196,0.86572 -4.66917,1.77884 -7.10481,2.26564 -1.23098,0.24736 -3.06244,0.10263 -4.13685,0.78678 -1.02704,0.65261 -1.27832,3.1577 -0.2013,3.88924 0.78523,0.53153 2.41985,-0.005 3.28558,-0.14473 3.19533,-0.51313 6.24196,-1.5841 9.20995,-2.84982 8.37735,-3.57608 16.31525,-7.81264 24.99838,-10.67825 2.82192,-0.93152 5.75805,-1.72884 8.68365,-2.25775 1.44018,-0.25789 3.62476,-0.16578 4.91601,-0.83153 1.10307,-0.57103 0.60995,-3.23664 0.60995,-4.27868 m 129.99163,1.40254 c 5.35755,-0.93152 6.87852,6.51012 1.3157,7.41796 -4.86284,0.79204 -6.4338,-6.52591 -1.3157,-7.41796 m 97.09902,0 c 5.51279,-0.96046 6.62588,6.51274 1.05255,7.41796 -4.9523,0.80521 -6.08381,-6.5417 -1.05255,-7.41796 m -278.66628,30.43753 13.94648,-3.8024 24.47211,-10.10723 9.20993,-2.40513 3.67661,-0.9473 0.2705,-3.78923 c -14.26751,0.61313 -26.80722,8.75998 -39.73429,13.66491 -3.95264,1.50254 -13.58044,1.50254 -11.84134,7.38638 m 221.03841,-16.95155 c 5.68121,0 5.98119,8.79943 0,8.79153 -5.88384,-0.008 -5.96542,-8.79153 0,-8.79153 M 150.51984,388.993 c 3.62214,-0.74731 7.58556,-1.40253 11.05192,-2.69193 13.33651,-4.95758 26.26622,-13.22545 40.78686,-14.41222 l -0.5263,-4.21027 c -7.31637,0.98417 -14.76773,2.73405 -21.57754,5.63912 -5.99199,2.55509 -11.59768,5.94961 -17.63045,8.41261 -2.82693,1.15256 -5.67938,2.06567 -8.68365,2.62878 -0.90468,0.16842 -3.07927,0.0816 -3.67635,0.84468 -0.66311,0.84732 -0.0229,2.8735 0.25551,3.78923 m -0.52628,10.2625 c 7.62713,-0.005 14.65406,-3.58398 21.31442,-6.90745 4.31156,-2.14985 8.91811,-3.80502 13.42019,-5.51017 3.98923,-1.51041 8.21895,-2.44721 12.36762,-3.39978 1.44676,-0.33419 3.37715,-0.20788 4.69733,-0.89468 0.9852,-0.51313 0.95809,-3.11033 0.29498,-3.9129 -0.55655,-0.67626 -1.92513,-0.14474 -2.62404,-0.005 -2.37301,0.47365 -4.73995,0.96573 -7.10481,1.47622 -10.79955,2.33405 -19.68451,7.98632 -29.73492,12.20184 -2.79745,1.17098 -5.68937,2.15512 -8.68365,2.67614 -0.89311,0.15525 -3.08953,0.0106 -3.67662,0.74995 -0.61417,0.77628 -0.2705,2.58931 -0.2705,3.52608 m 0,6.84169 v 3.68396 c 8.85863,0 16.71655,-4.59969 24.47211,-8.35209 4.83416,-2.33933 10.05935,-4.17869 15.26219,-5.49703 2.71956,-0.68679 5.41174,-1.442 8.15735,-2.02881 1.10046,-0.23419 2.7314,-0.16578 3.54873,-1.0473 0.95283,-1.02625 0.66153,-2.84192 0.66153,-4.12604 -3.44689,0.0289 -6.93796,1.17624 -10.26249,2.00775 -14.62248,3.65503 -26.98958,12.59394 -41.83942,15.35956 m 49.99679,-6.57854 c -2.97612,0.0605 -5.84962,1.18678 -8.68365,1.9946 -3.22585,0.91837 -6.64748,1.6499 -9.73622,2.97087 -7.07691,3.02875 -13.90043,7.29953 -21.31442,9.43097 -2.75903,0.79206 -7.29375,1.22099 -9.65255,2.7893 -0.79968,0.53417 -0.9944,2.98402 -0.18812,3.59187 0.67073,0.50523 2.23273,0.0447 2.99901,-0.0658 3.06533,-0.43418 6.10434,-1.42622 8.94678,-2.62878 9.53124,-4.03395 18.40934,-8.631 28.41922,-11.5045 4.49367,-1.2894 8.96208,-0.88944 9.20995,-6.57854 M 50,423.72785 c 1.13862,7.60215 8.37893,15.27534 12.99916,21.0513 16.47974,20.6013 39.49088,33.80834 65.15371,39.26325 29.16365,6.19961 59.80905,2.1946 88.41537,-4.95757 48.78895,-12.19659 95.31228,-35.00301 145.78006,-40.05007 20.13028,-2.01302 40.92632,-1.57095 60.52244,4.01555 7.16268,2.04197 14.2438,4.44971 21.05127,7.48109 4.0208,1.79199 8.1442,4.90757 12.63076,5.29967 -0.80785,-2.80245 -2.87085,-5.36546 -4.64706,-7.63111 -4.25499,-5.42859 -9.37834,-10.03618 -14.56223,-14.54642 -21.52757,-18.72247 -49.6889,-31.71112 -78.67915,-30.44015 -37.25812,1.63147 -74.18732,12.75444 -109.46663,24.02478 -24.02345,7.67581 -47.76218,16.40421 -72.62691,21.06442 -15.13403,2.83667 -30.40013,3.95501 -45.78653,3.57872 C 112.92648,451.44188 93.77086,447.52106 77.6298,439.71105 71.32022,436.6586 65.66689,432.57203 59.73622,428.88017 56.71851,426.9987 53.44346,424.71991 50,423.72785 m 145.25382,-12.63076 c -12.79129,0.26579 -23.68506,10.10989 -35.52403,13.57282 -2.71009,0.79206 -6.45618,1.0394 -8.91811,2.32879 -1.14889,0.60261 -1.4073,2.46826 -0.5713,3.46293 0.66706,0.7947 2.09434,0.14738 2.91087,-0.0579 2.71878,-0.67891 5.44571,-1.33151 8.15738,-2.03935 7.8558,-2.04725 14.92298,-6.9785 22.63012,-9.54938 4.96732,-1.65517 9.67701,-2.03146 11.31507,-7.71794 m -45.26026,28.41922 c 10.23909,0 18.758,-3.00242 27.6298,-8.04683 2.89825,-1.64728 7.5853,-3.96554 8.42051,-7.47848 -4.88231,0.94731 -9.05626,3.46821 -13.42019,5.72068 -4.47418,2.31039 -9.20413,4.24973 -13.94647,5.9391 -2.45641,0.87362 -8.58051,0.71573 -8.68365,3.86553 m -45.26025,47.36538 c 1.55886,1.83146 4.26157,2.88928 6.31538,4.105 5.29915,3.1419 10.77432,5.92067 16.31476,8.59417 30.40751,14.67276 64.55609,14.59643 97.09901,8.72576 43.74718,-7.88897 84.87083,-25.89832 127.88649,-36.6529 20.88288,-5.2207 42.58937,-9.39149 64.20641,-8.44419 22.59328,0.98942 42.83144,8.89944 63.94325,16.04108 -1.01574,-2.15777 -3.80502,-3.81556 -5.78911,-5.04967 -5.05494,-3.13929 -10.6072,-5.58122 -16.05161,-7.95477 -17.1673,-7.49162 -34.28989,-11.00717 -52.89133,-12.28078 -6.43641,-0.43944 -13.31492,-0.65786 -19.73557,0.1 -7.2732,0.85785 -14.57275,1.29203 -21.8407,2.36301 -13.33597,1.96566 -26.54301,5.21019 -39.47114,8.98627 -45.78389,13.37808 -90.28998,33.41099 -138.41214,36.70553 -18.54934,1.27097 -37.61284,-0.51051 -55.52275,-5.61544 -8.72995,-2.48668 -17.0723,-8.29683 -26.05095,-9.62306 z"
       id="path3765" /></g></svg>
